<svg width="24" height="24" viewBox="0 0 24 24" fill="none" xmlns="http://www.w3.org/2000/svg">
  <path
    d="M3.39487 17.8853C2.70715 17.8853 2 18.4535 2 19.4481C2 20.3574 2.62175 20.9996 3.39487 20.9996C4.03303 20.9996 4.31746 20.5579 4.31746 20.5579V20.7505C4.31746 20.8415 4.40089 20.943 4.50417 20.943H4.96547V17.9532H4.31746V18.3326C4.31746 18.3326 4.03065 17.8853 3.39487 17.8853ZM3.5103 18.4966C4.07643 18.4966 4.3734 19.01 4.3734 19.4479C4.3734 19.9356 4.02081 20.3988 3.5115 20.3988C3.08575 20.3988 2.65927 20.0433 2.65927 19.4414C2.65927 18.8982 3.02628 18.4966 3.5103 18.4966Z"
    fill="currentColor"/>
  <path
    d="M5.86672 20.9435C5.76716 20.9435 5.68001 20.8699 5.68001 20.751V17.9537H6.32801V18.3237C6.47485 18.0961 6.76173 17.8849 7.20206 17.8849C7.92176 17.8849 8.30499 18.4764 8.30499 19.0296V20.9435H7.85468C7.7366 20.9435 7.65699 20.8416 7.65699 20.7396V19.1768C7.65699 18.8702 7.47479 18.4978 7.05342 18.4978C6.59875 18.4978 6.32801 18.9409 6.32801 19.358V20.9435H5.86672Z"
    fill="currentColor"/>
  <path
    d="M10.1949 17.8852C9.50718 17.8852 8.80002 18.4535 8.80002 19.4481C8.80002 20.3573 9.42178 20.9996 10.1949 20.9996C10.8331 20.9996 11.1175 20.5579 11.1175 20.5579V20.7504C11.1175 20.8414 11.2009 20.943 11.3042 20.943H11.7655V16.4583H11.1175V18.3326C11.1175 18.3326 10.8307 17.8852 10.1949 17.8852ZM10.3103 18.4966C10.8765 18.4966 11.1734 19.01 11.1734 19.4479C11.1734 19.9356 10.8208 20.3988 10.3115 20.3988C9.88577 20.3988 9.4593 20.0433 9.4593 19.4414C9.4593 18.8982 9.8263 18.4966 10.3103 18.4966Z"
    fill="currentColor"/>
  <path
    d="M12.6637 20.9444C12.5642 20.9444 12.477 20.8708 12.477 20.7519V17.9546H13.125V18.4529C13.2366 18.1738 13.4772 17.9207 13.9048 17.9207C14.024 17.9207 14.1355 17.9433 14.1355 17.9433V18.6341C14.1355 18.6341 13.9963 18.5775 13.8279 18.5775C13.3733 18.5775 13.125 19.0206 13.125 19.4377V20.9444H12.6637Z"
    fill="currentColor"/>
  <path d="M18.0701 20.9441C17.9706 20.9441 17.8834 20.8704 17.8834 20.7516V17.9543H18.5314V20.9441H18.0701Z"
        fill="currentColor"/>
  <path
    d="M20.4294 17.8852C19.7417 17.8852 19.0345 18.4535 19.0345 19.4481C19.0345 20.3573 19.6563 20.9996 20.4294 20.9996C21.0676 20.9996 21.352 20.5579 21.352 20.5579V20.7504C21.352 20.8414 21.4354 20.943 21.5387 20.943H22V16.4583H21.352V18.3326C21.352 18.3326 21.0652 17.8852 20.4294 17.8852ZM20.5448 18.4966C21.111 18.4966 21.4079 19.01 21.4079 19.4479C21.4079 19.9356 21.0553 20.3988 20.546 20.3988C20.1203 20.3988 19.6938 20.0433 19.6938 19.4414C19.6938 18.8982 20.0608 18.4966 20.5448 18.4966Z"
    fill="currentColor"/>
  <path
    d="M18.2006 17.3091C18.4373 17.3091 18.6292 17.1112 18.6292 16.8671C18.6292 16.6231 18.4373 16.4252 18.2006 16.4252C17.9639 16.4252 17.772 16.6231 17.772 16.8671C17.772 17.1112 17.9639 17.3091 18.2006 17.3091Z"
    fill="currentColor"/>
  <path
    d="M15.8463 17.8845C15.126 17.8845 14.3348 18.4389 14.3348 19.4431C14.3348 20.3581 15.0087 21 15.8447 21C16.8749 21 17.378 20.146 17.378 19.4489C17.378 18.5934 16.7302 17.8845 15.8463 17.8845ZM15.8486 18.5085C16.3467 18.5085 16.7182 18.9224 16.7182 19.4449C16.7182 19.9765 16.3238 20.3867 15.8501 20.3867C15.4104 20.3867 14.9829 20.0177 14.9829 19.4539C14.9829 18.8806 15.3894 18.5085 15.8486 18.5085Z"
    fill="currentColor"/>
  <path
    d="M16.8812 6.48201L18.5392 3.52058C18.6327 3.35456 18.5762 3.14367 18.4173 3.0472C18.2585 2.95073 18.0518 3.00681 17.9604 3.17283L16.2807 6.1724C14.9991 5.5689 13.5566 5.23237 12.0052 5.23237C10.4538 5.23237 9.01128 5.5689 7.72972 6.1724L6.04999 3.17283C5.95643 3.00681 5.75191 2.95073 5.5909 3.0472C5.42988 3.14367 5.37549 3.35456 5.46905 3.52058L7.12702 6.48201C4.268 8.07938 2.33152 11.0632 2.01168 14.5564H21.9987C21.6789 11.0632 19.7424 8.07938 16.8812 6.48201ZM7.41641 11.6623C6.95296 11.6623 6.57872 11.2741 6.57872 10.7985C6.57872 10.3206 6.95513 9.93476 7.41641 9.93476C7.87986 9.93476 8.2541 10.3229 8.2541 10.7985C8.25628 11.2741 7.87986 11.6623 7.41641 11.6623ZM16.5918 11.6623C16.1284 11.6623 15.7541 11.2741 15.7541 10.7985C15.7541 10.3206 16.1306 9.93476 16.5918 9.93476C17.0553 9.93476 17.4295 10.3229 17.4295 10.7985C17.4317 11.2741 17.0553 11.6623 16.5918 11.6623Z"
    fill="currentColor"/>
</svg>
