<svg width="24" height="24" viewBox="0 0 24 24" fill="none" xmlns="http://www.w3.org/2000/svg">
  <path
    d="M20.6249 17.9865C20.2895 18.7615 19.8925 19.4748 19.4325 20.1307C18.8055 21.0248 18.2922 21.6437 17.8965 21.9874C17.2832 22.5515 16.6261 22.8404 15.9224 22.8568C15.4173 22.8568 14.8081 22.7131 14.0989 22.4214C13.3875 22.1311 12.7336 21.9874 12.1358 21.9874C11.5088 21.9874 10.8364 22.1311 10.1171 22.4214C9.39673 22.7131 8.81642 22.865 8.37273 22.8801C7.69795 22.9089 7.02537 22.6117 6.35401 21.9874C5.92552 21.6136 5.38956 20.9728 4.7475 20.065C4.05863 19.0956 3.49228 17.9714 3.04859 16.6898C2.57341 15.3056 2.33521 13.9651 2.33521 12.6674C2.33521 11.1808 2.65637 9.89865 3.29966 8.82423C3.80523 7.96121 4.47781 7.28043 5.3196 6.78066C6.1614 6.2809 7.07095 6.02622 8.05047 6.00993C8.58643 6.00993 9.28927 6.17574 10.1627 6.50162C11.0336 6.82859 11.5929 6.9944 11.8381 6.9944C12.0214 6.9944 12.6426 6.80052 13.6958 6.41399C14.6917 6.05552 15.5323 5.9071 16.2209 5.96557C18.0868 6.11618 19.4887 6.85186 20.4209 8.17727C18.7521 9.18857 17.9266 10.605 17.9431 12.4221C17.9581 13.8375 18.4715 15.0153 19.4804 15.9505C19.9377 16.3845 20.4483 16.72 21.0164 16.9582C20.8932 17.3156 20.7632 17.6579 20.6249 17.9865ZM16.3455 1.14372C16.3455 2.25307 15.9402 3.28888 15.1325 4.2476C14.1578 5.38734 12.9788 6.04594 11.7003 5.94202C11.684 5.80893 11.6746 5.66886 11.6746 5.52167C11.6746 4.45668 12.1381 3.31695 12.9613 2.38505C13.3723 1.91322 13.895 1.5209 14.5288 1.20793C15.1613 0.89964 15.7595 0.729147 16.3222 0.699951C16.3386 0.848255 16.3455 0.996568 16.3455 1.1437V1.14372Z"
    fill="currentColor"/>
</svg>
