<svg width="18" height="21" viewBox="0 0 18 21" fill="none" xmlns="http://www.w3.org/2000/svg">
  <path d="M16.2479 4.55383C15.2641 4.3915 14.3558 3.91142 13.6554 3.18358C12.955 2.45574 12.4991 1.5182 12.3542 0.507619L12.3311 0.067281L8.97601 0.243114L9.69145 13.8946C9.72105 14.4991 9.56517 15.0974 9.24571 15.6054C8.92626 16.1134 8.45929 16.5057 7.91042 16.727C7.36156 16.9484 6.75839 16.9877 6.18567 16.8394C5.61296 16.6911 5.09948 16.3628 4.71741 15.9004L4.71541 15.8995L4.71741 15.9004C4.32937 15.4303 4.09717 14.8462 4.05447 14.2326C4.01177 13.619 4.1608 13.008 4.47995 12.488C4.79909 11.9681 5.27176 11.5663 5.8294 11.341C6.38705 11.1156 7.00069 11.0784 7.58133 11.2347L7.39817 7.73999C6.11569 7.62628 4.83165 7.92626 3.72566 8.59796C2.61967 9.26966 1.74705 10.2795 1.22986 11.4862C0.71266 12.6929 0.576757 14.0361 0.841156 15.328C1.10556 16.6199 1.75703 17.7958 2.70446 18.6913C3.60795 19.5448 4.73835 20.1036 5.95137 20.2964C7.16439 20.4892 8.405 20.3073 9.51484 19.7738C10.6247 19.2403 11.5534 18.3794 12.1824 17.3011C12.8115 16.2228 13.1123 14.976 13.0466 13.7198L12.681 6.74424C14.089 7.66702 15.7427 8.11473 17.4093 8.02434L17.2302 4.60648C16.9019 4.6241 16.5727 4.60645 16.2479 4.55383Z" fill="white"/>
</svg>
