<svg width="24" height="24" viewBox="0 0 24 24" fill="none" xmlns="http://www.w3.org/2000/svg">
  <path
    d="M22.8039 17.1962C22.7448 17.0972 22.379 16.3024 20.6189 14.6688C18.7762 12.9581 19.0238 13.2359 21.2432 10.2781C22.5949 8.47667 23.1353 7.37659 22.9662 6.90631C22.8053 6.45803 21.8111 6.57628 21.8111 6.57628L18.5053 6.59554C18.5053 6.59554 18.2606 6.56253 18.0777 6.67117C17.9003 6.77842 17.7862 7.02594 17.7862 7.02594C17.7862 7.02594 17.2623 8.42029 16.5637 9.60563C15.091 12.1069 14.501 12.2389 14.2604 12.0836C13.7007 11.7219 13.841 10.6287 13.841 9.85315C13.841 7.42885 14.2082 6.41815 13.1246 6.15688C12.7643 6.07025 12.5003 6.01249 11.5803 6.00287C10.4005 5.99049 9.4008 6.00699 8.83563 6.28339C8.45885 6.46765 8.16871 6.87881 8.3461 6.90218C8.56474 6.93106 9.05977 7.03557 9.32242 7.39309C9.66207 7.85375 9.64969 8.89058 9.64969 8.89058C9.64969 8.89058 9.84496 11.7439 9.19453 12.0987C8.74763 12.3421 8.13571 11.8457 6.82248 9.57538C6.15006 8.41342 5.64127 7.1277 5.64127 7.1277C5.64127 7.1277 5.54364 6.88843 5.369 6.76055C5.15724 6.60516 4.86022 6.55566 4.86022 6.55566L1.71673 6.57491C1.71673 6.57491 1.24507 6.58866 1.07181 6.79355C0.917801 6.97644 1.05944 7.35322 1.05944 7.35322C1.05944 7.35322 3.52087 13.1108 6.30682 16.0136C8.86313 18.6744 11.7646 18.4998 11.7646 18.4998H13.0792C13.0792 18.4998 13.4766 18.4558 13.6787 18.2371C13.8658 18.0364 13.8589 17.6596 13.8589 17.6596C13.8589 17.6596 13.8327 15.8953 14.6523 15.6354C15.4595 15.3797 16.4963 17.3406 17.595 18.0955C18.4256 18.6662 19.0568 18.541 19.0568 18.541L21.9953 18.4998C21.9953 18.4998 23.5327 18.4049 22.8039 17.1962Z"
    fill="currentColor"/>
</svg>
