<svg width="19" height="18" viewBox="0 0 19 18" fill="none" xmlns="http://www.w3.org/2000/svg">
  <path d="M11.282 11.1948L17.8967 17.8108C18.0174 17.9314 18.181 17.9992 18.3517 17.9992C18.5224 17.9992 18.686 17.9314 18.8067 17.8108C18.9274 17.6901 18.9952 17.5264 18.9952 17.3557C18.9952 17.1851 18.9274 17.0214 18.8067 16.9007L2.09659 0.190555C2.03683 0.130799 1.96589 0.0833988 1.88782 0.0510594C1.80974 0.01872 1.72606 0.0020752 1.64156 0.0020752C1.55705 0.00207519 1.47337 0.01872 1.3953 0.0510594C1.31722 0.0833988 1.24628 0.130799 1.18653 0.190555C1.12677 0.25031 1.07937 0.32125 1.04703 0.399324C1.01469 0.477399 0.998047 0.561078 0.998047 0.645585C0.998047 0.730092 1.01469 0.813771 1.04703 0.891845C1.07937 0.969919 1.12677 1.04086 1.18653 1.10061L5.22267 5.13547H4.21235C3.70099 5.13547 3.21057 5.33861 2.84898 5.7002C2.48739 6.06178 2.28425 6.5522 2.28425 7.06356V10.9056C2.28425 11.417 2.48739 11.9074 2.84898 12.269C3.21057 12.6306 3.70099 12.8337 4.21235 12.8337H6.42708L10.1882 16.5292C10.2785 16.6182 10.3931 16.6786 10.5176 16.7026C10.6422 16.7266 10.771 16.7132 10.888 16.6642C11.0049 16.6151 11.1047 16.5325 11.1748 16.4269C11.245 16.3212 11.2823 16.1971 11.282 16.0703V11.1948Z" fill="white"/>
  <path d="M14.7664 11.0419L13.7445 10.02C13.8152 9.7218 13.8602 9.38117 13.8602 8.99941C13.8602 8.03793 13.5787 7.34896 13.31 6.90678C13.1774 6.68855 13.0181 6.48775 12.8357 6.30907C12.8281 6.30209 12.8204 6.29523 12.8126 6.28851H12.8138C12.689 6.17969 12.611 6.02689 12.5961 5.86197C12.5812 5.69706 12.6305 5.53274 12.7338 5.40329C12.837 5.27384 12.9863 5.18924 13.1504 5.16713C13.3145 5.14502 13.4808 5.18711 13.6146 5.28461H13.6159L13.6172 5.2859L13.6198 5.28847L13.6275 5.29361L13.6468 5.31032C13.7314 5.38402 13.812 5.46211 13.8884 5.54426C14.0337 5.70237 14.2226 5.93245 14.4077 6.23838C14.7831 6.85537 15.1456 7.77185 15.1456 8.99941C15.151 9.69822 15.0222 10.3916 14.7664 11.0419Z" fill="white"/>
  <path d="M16.7162 12.9915L15.7586 12.0339C16.2035 11.0865 16.4327 10.0521 16.4296 9.00547C16.4328 7.6029 16.0218 6.23059 15.2483 5.06059C15.0103 4.69625 14.7392 4.3546 14.4385 4.03999C14.3347 3.93242 14.2262 3.82949 14.1133 3.73149L14.0991 3.71864C13.9694 3.61129 13.887 3.45731 13.8696 3.28983C13.8523 3.12235 13.9013 2.95474 14.0062 2.82304C14.1112 2.69134 14.2636 2.60608 14.4307 2.58559C14.5978 2.5651 14.7663 2.61101 14.8999 2.71346L14.9012 2.71475L14.9051 2.71732L14.9141 2.72503L14.9424 2.74945C15.0889 2.87625 15.2296 3.00964 15.364 3.14921C15.6275 3.423 15.9758 3.82661 16.3229 4.35491C17.234 5.73454 17.7182 7.35214 17.715 9.00547C17.7187 10.3961 17.3754 11.7657 16.7162 12.9902V12.9915Z" fill="white"/>
  <path d="M11.2818 7.55877L7.65698 3.93652L10.1892 1.47113C10.2798 1.38333 10.3942 1.32413 10.5182 1.3009C10.6422 1.27768 10.7703 1.29146 10.8865 1.34052C11.0027 1.38958 11.1019 1.47176 11.1718 1.57682C11.2416 1.68187 11.279 1.80516 11.2792 1.9313V7.55877H11.2818Z" fill="white"/>
</svg>
