<svg width="36" height="36" viewBox="0 0 36 36" fill="none" xmlns="http://www.w3.org/2000/svg">
  <path d="M5.48202 26.5607C4.48171 26.5607 3.45312 27.3872 3.45312 28.8339C3.45312 30.1565 4.35749 31.0907 5.48202 31.0907C6.41027 31.0907 6.82397 30.4483 6.82397 30.4483V30.7283C6.82397 30.8606 6.94534 31.0083 7.09556 31.0083H7.76653V26.6596H6.82397V27.2114C6.82397 27.2114 6.4068 26.5607 5.48202 26.5607ZM5.64992 27.45C6.47339 27.45 6.90535 28.1967 6.90535 28.8336C6.90535 29.5431 6.39248 30.2168 5.65167 30.2168C5.0324 30.2168 4.41206 29.6997 4.41206 28.8243C4.41206 28.0341 4.9459 27.45 5.64992 27.45Z" fill="#191814"/>
  <path d="M9.07745 31.0091C8.93263 31.0091 8.80586 30.902 8.80586 30.729V26.6603H9.74842V27.1985C9.962 26.8674 10.3793 26.5602 11.0198 26.5602C12.0666 26.5602 12.624 27.4206 12.624 28.2252V31.0091H11.969C11.7973 31.0091 11.6815 30.8608 11.6815 30.7126V28.4394C11.6815 27.9934 11.4165 27.4517 10.8036 27.4517C10.1422 27.4517 9.74842 28.0962 9.74842 28.7029V31.0091H9.07745Z" fill="#191814"/>
  <path d="M15.373 26.5607C14.3727 26.5607 13.3441 27.3872 13.3441 28.8339C13.3441 30.1565 14.2484 31.0907 15.373 31.0907C16.3012 31.0907 16.7149 30.4482 16.7149 30.4482V30.7283C16.7149 30.8606 16.8363 31.0083 16.9865 31.0083H17.6575V24.4852H16.7149V27.2114C16.7149 27.2114 16.2977 26.5607 15.373 26.5607ZM15.5409 27.4499C16.3643 27.4499 16.7963 28.1967 16.7963 28.8336C16.7963 29.543 16.2834 30.2168 15.5426 30.2168C14.9233 30.2168 14.303 29.6996 14.303 28.8242C14.303 28.034 14.8368 27.4499 15.5409 27.4499Z" fill="#191814"/>
  <path d="M18.964 31.0104C18.8192 31.0104 18.6924 30.9033 18.6924 30.7303V26.6616H19.635V27.3864C19.7972 26.9804 20.1473 26.6122 20.7692 26.6122C20.9426 26.6122 21.1047 26.6452 21.1047 26.6452V27.65C21.1047 27.65 20.9023 27.5676 20.6574 27.5676C19.9961 27.5676 19.635 28.2121 19.635 28.8188V31.0104H18.964Z" fill="#191814"/>
  <path d="M26.8279 31.0099C26.683 31.0099 26.5563 30.9028 26.5563 30.7299V26.6612H27.4988V31.0099H26.8279Z" fill="#191814"/>
  <path d="M30.2595 26.5607C29.2592 26.5607 28.2306 27.3872 28.2306 28.8339C28.2306 30.1565 29.135 31.0907 30.2595 31.0907C31.1878 31.0907 31.6015 30.4482 31.6015 30.4482V30.7283C31.6015 30.8606 31.7228 31.0083 31.8731 31.0083H32.544V24.4852H31.6015V27.2114C31.6015 27.2114 31.1843 26.5607 30.2595 26.5607ZM30.4274 27.4499C31.2509 27.4499 31.6828 28.1967 31.6828 28.8336C31.6828 29.543 31.17 30.2168 30.4292 30.2168C29.8099 30.2168 29.1896 29.6996 29.1896 28.8242C29.1896 28.034 29.7234 27.4499 30.4274 27.4499Z" fill="#191814"/>
  <path d="M27.0176 25.7226C27.3619 25.7226 27.641 25.4348 27.641 25.0798C27.641 24.7248 27.3619 24.437 27.0176 24.437C26.6733 24.437 26.3942 24.7248 26.3942 25.0798C26.3942 25.4348 26.6733 25.7226 27.0176 25.7226Z" fill="#191814"/>
  <path d="M23.5931 26.5597C22.5455 26.5597 21.3946 27.366 21.3946 28.8266C21.3946 30.1576 22.3749 31.0913 23.5909 31.0913C25.0894 31.0913 25.8211 29.8491 25.8211 28.8351C25.8211 27.5907 24.8789 26.5597 23.5931 26.5597ZM23.5966 27.4673C24.321 27.4673 24.8614 28.0693 24.8614 28.8294C24.8614 29.6026 24.2877 30.1992 23.5987 30.1992C22.9591 30.1992 22.3373 29.6625 22.3373 28.8424C22.3373 28.0085 22.9287 27.4673 23.5966 27.4673Z" fill="#191814"/>
  <path d="M25.0985 9.97417L27.5101 5.66664C27.6462 5.42516 27.5639 5.11841 27.3329 4.97809C27.1019 4.83777 26.8012 4.91935 26.6683 5.16083L24.225 9.52384C22.361 8.64602 20.2627 8.15653 18.0062 8.15653C15.7496 8.15653 13.6514 8.64602 11.7873 9.52384L9.34402 5.16083C9.20794 4.91935 8.91044 4.83777 8.67625 4.97809C8.44205 5.11841 8.36293 5.42516 8.49902 5.66664L10.9106 9.97417C6.75203 12.2976 3.93534 16.6378 3.47011 21.7187H32.5422C32.077 16.6378 29.2603 12.2976 25.0985 9.97417ZM11.3315 17.5091C10.6574 17.5091 10.1131 16.9445 10.1131 16.2527C10.1131 15.5577 10.6606 14.9964 11.3315 14.9964C12.0056 14.9964 12.55 15.5609 12.55 16.2527C12.5532 16.9445 12.0056 17.5091 11.3315 17.5091ZM24.6776 17.5091C24.0035 17.5091 23.4591 16.9445 23.4591 16.2527C23.4591 15.5577 24.0067 14.9964 24.6776 14.9964C25.3517 14.9964 25.8961 15.5609 25.8961 16.2527C25.8992 16.9445 25.3517 17.5091 24.6776 17.5091Z" fill="#191814"/>
</svg>
