<svg width="36" height="36" viewBox="0 0 36 36" fill="none" xmlns="http://www.w3.org/2000/svg">
  <path d="M30.5454 26.7072C30.0575 27.8345 29.48 28.8721 28.811 29.8261C27.899 31.1266 27.1523 32.0268 26.5768 32.5267C25.6847 33.3472 24.7289 33.7674 23.7054 33.7913C22.9706 33.7913 22.0845 33.5822 21.053 33.158C20.0182 32.7358 19.0671 32.5267 18.1976 32.5267C17.2856 32.5267 16.3075 32.7358 15.2613 33.158C14.2134 33.5822 13.3694 33.8033 12.724 33.8252C11.7425 33.867 10.7642 33.4349 9.78768 32.5267C9.16441 31.983 8.38484 31.0509 7.45094 29.7305C6.44894 28.3204 5.62515 26.6853 4.97978 24.8212C4.28862 22.8077 3.94214 20.8579 3.94214 18.9703C3.94214 16.808 4.40929 14.9431 5.34498 13.3803C6.08035 12.125 7.05866 11.1348 8.28308 10.4078C9.50751 9.68091 10.8305 9.31048 12.2552 9.28678C13.0348 9.28678 14.0571 9.52796 15.3276 10.002C16.5944 10.4775 17.4078 10.7187 17.7645 10.7187C18.0311 10.7187 18.9347 10.4367 20.4666 9.87449C21.9152 9.3531 23.1379 9.13721 24.1395 9.22225C26.8536 9.44132 28.8926 10.5114 30.2487 12.4393C27.8213 13.9103 26.6206 15.9706 26.6445 18.6136C26.6664 20.6723 27.4131 22.3855 28.8807 23.7457C29.5457 24.3771 30.2885 24.865 31.1149 25.2116C30.9356 25.7314 30.7465 26.2293 30.5454 26.7072ZM24.3207 2.20865C24.3207 3.82226 23.7313 5.32888 22.5564 6.72339C21.1387 8.3812 19.4238 9.33915 17.5641 9.18799C17.5404 8.99441 17.5267 8.79067 17.5267 8.57657C17.5267 7.02751 18.2009 5.36971 19.3983 4.01423C19.9961 3.32793 20.7563 2.75728 21.6783 2.30206C22.5982 1.85363 23.4684 1.60564 24.2868 1.56317C24.3107 1.77889 24.3207 1.99461 24.3207 2.20863V2.20865Z" fill="#191814"/>
</svg>
