<svg width="31" height="30" viewBox="0 0 31 30" fill="none" xmlns="http://www.w3.org/2000/svg">
  <g opacity="0.6">
    <path
      d="M2.04264 30C1.64747 30 1.2523 29.8497 0.952057 29.5472C0.349314 28.9444 0.349314 27.9673 0.952057 27.3645L27.8645 0.452057C28.4673 -0.150686 29.4444 -0.150686 30.0472 0.452057C30.6499 1.0548 30.6499 2.032 30.0472 2.63511L3.13511 29.5472C2.83261 29.8478 2.43744 30 2.04264 30Z" fill="currentColor"/>
    <path
      d="M28.957 30C28.5618 30 28.167 29.8497 27.8664 29.5472L0.952057 2.63511C0.349314 2.032 0.349314 1.0548 0.952057 0.452057C1.5548 -0.150686 2.532 -0.150686 3.13511 0.452057L30.0472 27.3645C30.6499 27.9673 30.6499 28.9444 30.0472 29.5472C29.7447 29.8478 29.3499 30 28.957 30Z" fill="currentColor"/>
  </g>
</svg>
