<svg width="155" height="165" viewBox="0 0 155 165" fill="none" xmlns="http://www.w3.org/2000/svg">
  <path fill-rule="evenodd" clip-rule="evenodd" d="M154.53 55.4932L140.27 81.035L134.56 77.541L116.456 89.4734L105.846 108.466L105.904 117.646L113.721 118.552L120.712 116.085L107.324 140.008C107.324 140.008 101.672 138.114 97.0607 137.641C94.628 137.396 91.4035 137.333 89.8632 137.347L74.2782 165L15.1004 78.0711L22.365 65.0593L0 32.2405L17.9794 0H105.846L150.759 27.7972L140.337 46.7077L154.53 55.4932Z" fill="#C2191E"/>
  <path fill-rule="evenodd" clip-rule="evenodd" d="M44.9062 56.7519L53.241 41.8123C53.241 41.8123 48.4426 37.475 46.5809 33.5185C45.0646 30.2992 44.9062 24.7812 44.9062 24.7812H102.102V27.6101L149.222 56.8001L138.786 74.7901L134.673 72.289L119.098 82.525L112.582 78.4913L88.9934 120.736H94.8521L102.102 115.315V121.223L112.337 122.428L105.442 134.958C100.339 133.667 95.095 133.027 89.8331 133.054C84.2478 133.054 68.7204 133.025 68.7204 133.025L81.3928 110.433C76.6575 101.464 71.4288 92.766 65.731 84.3804C55.9952 70.2215 44.9062 56.7519 44.9062 56.7519Z" fill="white"/>
  <path fill-rule="evenodd" clip-rule="evenodd" d="M105.176 40.5149L92.6094 33.6523L95.4212 39.6763L107.374 47.0401L103.823 42.8088L105.176 40.5149Z" fill="#C2191E"/>
  <path fill-rule="evenodd" clip-rule="evenodd" d="M122.858 56.6758H152.575L138.103 66.1407L122.858 56.6758Z" fill="#C2191E"/>
</svg>
