<svg width="1366" height="1058" viewBox="0 0 1366 1058" fill="none" xmlns="http://www.w3.org/2000/svg">
  <path d="M1503.54 -209.25L1503.07 -208.539L1503.9 -207.982L1501.69 -204.697L1500.86 -205.254L1498.66 -201.969L1499.49 -201.412L1497.28 -198.126L1496.45 -198.684L1494.25 -195.398L1495.08 -194.841L1492.88 -191.556L1492.04 -192.113L1489.84 -188.828L1490.67 -188.271L1488.47 -184.986L1487.64 -185.543L1485.43 -182.258L1486.26 -181.701L1484.06 -178.415L1483.23 -178.973L1481.02 -175.688L1481.85 -175.13L1479.65 -171.845L1478.82 -172.402L1476.61 -169.117L1477.44 -168.56L1475.24 -165.275L1474.41 -165.832L1472.2 -162.547L1473.03 -161.99L1470.83 -158.704L1470 -159.262L1467.79 -155.976L1468.62 -155.419L1466.42 -152.134L1465.59 -152.691L1463.39 -149.406L1464.22 -148.849L1462.01 -145.564L1461.18 -146.121L1458.98 -142.836L1459.81 -142.279L1457.6 -138.993L1456.77 -139.551L1454.57 -136.265L1455.4 -135.708L1453.19 -132.423L1452.36 -132.98L1450.16 -129.695L1450.99 -129.138L1448.78 -125.853L1447.95 -126.41L1445.75 -123.125L1446.58 -122.568L1444.37 -119.282L1443.54 -119.84L1441.34 -116.554L1442.17 -115.997L1439.97 -112.712L1439.14 -113.269L1436.93 -109.984L1437.76 -109.427L1435.56 -106.142L1434.73 -106.699L1432.52 -103.414L1433.35 -102.857L1431.15 -99.5713L1430.32 -100.129L1428.11 -96.8433L1428.94 -96.2861L1426.74 -93.0009L1425.91 -93.5582L1423.7 -90.273L1424.53 -89.7158L1422.33 -86.4306L1421.5 -86.9878L1419.29 -83.7026L1420.12 -83.1454L1417.92 -79.8603L1417.09 -80.4175L1414.89 -77.1323L1415.72 -76.5751L1413.51 -73.2899L1412.68 -73.8471L1410.48 -70.562L1411.31 -70.0047L1409.1 -66.7195L1408.27 -67.2768L1406.07 -63.9916L1406.9 -63.4344L1404.69 -60.1492L1403.86 -60.7064L1401.66 -57.4213L1402.49 -56.8641L1400.28 -53.5789L1399.45 -54.1361L1397.25 -50.8509L1398.08 -50.2937L1395.87 -47.0085L1395.04 -47.5657L1392.84 -44.2806L1393.67 -43.7233L1391.47 -40.4382L1390.64 -40.9954L1388.43 -37.7102L1389.26 -37.153L1387.06 -33.8679L1386.23 -34.425L1384.02 -31.1399L1384.85 -30.5826L1382.65 -27.2975L1381.82 -27.8547L1379.61 -24.5695L1380.44 -24.0123L1378.24 -20.7271L1377.41 -21.2844L1375.2 -17.9992L1376.03 -17.442L1373.83 -14.1568L1373 -14.714L1370.79 -11.4288L1371.62 -10.8716L1369.42 -7.58643L1368.59 -8.14368L1366.39 -4.85852L1367.22 -4.30127L1365.01 -1.01611L1364.18 -1.5733L1361.98 1.71185L1362.81 2.2691L1360.6 5.5542L1359.77 4.99701L1357.57 8.28217L1358.4 8.83936L1356.19 12.1246L1355.36 11.5673L1353.16 14.8525L1353.99 15.4097L1351.78 18.6948L1350.95 18.1376L1348.75 21.4228L1349.58 21.98L1347.37 25.2652L1346.54 24.7079L1344.34 27.9931L1345.17 28.5504L1342.97 31.8355L1342.13 31.2783L1339.93 34.5634L1340.76 35.1207L1338.56 38.4058L1337.73 37.8486L1335.52 41.1338L1336.35 41.691L1334.15 44.9762L1333.32 44.4189L1331.11 47.7041L1331.94 48.2613L1329.74 51.5464L1328.91 50.9893L1326.7 54.2744L1327.53 54.8316L1325.33 58.1168L1324.5 57.5596L1322.29 60.8447L1323.12 61.402L1320.92 64.6871L1320.09 64.1299L1317.88 67.415L1318.72 67.9723L1316.51 71.2574L1315.68 70.7002L1313.48 73.9854L1314.31 74.5426L1312.1 77.8278L1311.27 77.2705L1309.07 80.5557L1309.9 81.1129L1307.69 84.3981L1306.86 83.8408L1306.25 84.7476L1305.24 84.2306L1304.78 85.1218L1301.17 83.2833L1301.63 82.3922L1298.02 80.5538L1297.56 81.4449L1293.95 79.6066L1294.4 78.7154L1290.79 76.877L1290.34 77.7682L1286.73 75.9297L1287.18 75.0386L1283.57 73.2002L1283.12 74.0913L1279.51 72.2529L1279.96 71.3618L1276.35 69.5234L1275.9 70.4146L1272.28 68.5762L1272.74 67.685L1269.13 65.8466L1268.67 66.7377L1265.06 64.8994L1265.52 64.0082L1261.9 62.1698L1261.45 63.0609L1257.84 61.2225L1258.29 60.3314L1254.68 58.493L1254.23 59.3842L1250.62 57.5458L1251.07 56.6546L1247.46 54.8162L1247.01 55.7073L1243.4 53.8689L1243.85 52.9778L1240.24 51.1394L1239.78 52.0305L1236.17 50.1921L1236.63 49.301L1233.02 47.4626L1232.56 48.3538L1228.95 46.5153L1229.41 45.6241L1227.6 44.705L1227.13 44.4651L1226.66 44.7193L1224.92 45.6785L1225.4 46.5554L1221.9 48.4738L1221.42 47.5969L1217.92 49.5154L1218.4 50.3922L1214.9 52.3106L1214.42 51.4338L1210.92 53.3522L1211.4 54.229L1207.9 56.1475L1207.42 55.2706L1203.93 57.189L1204.41 58.0659L1200.91 59.9843L1200.43 59.1074L1196.93 61.0259L1197.41 61.9027L1193.91 63.8211L1193.43 62.9443L1189.93 64.8627L1190.41 65.7395L1186.91 67.658L1186.43 66.7811L1182.93 68.6995L1183.42 69.5764L1179.92 71.4948L1179.44 70.618L1175.94 72.5364L1176.42 73.4132L1172.92 75.3317L1172.44 74.4548L1168.94 76.3732L1169.42 77.2501L1165.92 79.1685L1165.44 78.2916L1161.94 80.2101L1162.43 81.0869L1158.93 83.0053L1158.45 82.1285L1154.95 84.0469L1155.43 84.9237L1151.93 86.8421L1151.45 85.9653L1147.95 87.8837L1148.43 88.7606L1144.93 90.679L1144.45 89.8021L1140.95 91.7206L1141.43 92.5974L1137.94 94.5158L1137.46 93.639L1133.96 95.5574L1134.44 96.4342L1130.94 98.3526L1130.46 97.4758L1126.96 99.3942L1127.44 100.271L1123.94 102.189L1123.46 101.313L1119.96 103.231L1120.44 104.108L1116.95 106.026L1116.47 105.149L1112.97 107.068L1113.45 107.945L1109.95 109.863L1109.47 108.986L1105.97 110.905L1106.45 111.782L1102.95 113.7L1102.47 112.823L1098.97 114.742L1099.45 115.618L1095.96 117.537L1095.47 116.66L1091.98 118.578L1092.46 119.455L1088.96 121.374L1088.48 120.497L1084.98 122.415L1085.46 123.292L1081.96 125.211L1081.48 124.334L1077.98 126.252L1078.46 127.129L1074.97 129.047L1074.48 128.171L1070.99 130.089L1071.47 130.966L1067.97 132.884L1067.49 132.007L1063.99 133.926L1064.47 134.803L1060.97 136.721L1060.49 135.844L1056.99 137.763L1057.47 138.639L1053.97 140.558L1053.49 139.681L1050 141.599L1050.48 142.476L1046.98 144.395L1046.5 143.518L1043 145.436L1043.48 146.313L1039.98 148.232L1039.5 147.355L1036 149.273L1036.48 150.15L1032.98 152.068L1032.5 151.192L1029.01 153.11L1029.49 153.987L1025.99 155.905L1025.51 155.028L1022.01 156.947L1022.49 157.824L1018.99 159.742L1018.51 158.865L1015.01 160.784L1015.49 161.661L1011.99 163.579L1011.51 162.702L1008.01 164.621L1008.5 165.497L1005 167.416L1004.52 166.539L1001.02 168.457L1001.5 169.334L998 171.253L997.52 170.376L994.021 172.294L994.502 173.171L991.004 175.089L990.523 174.213L987.024 176.131L987.505 177.008L984.007 178.926L983.526 178.049L980.028 179.968L980.509 180.845L977.01 182.763L976.529 181.886L974.78 182.845L974.567 182.963L974.431 183.165L973.312 184.83L974.143 185.388L971.906 188.719L971.076 188.161L968.84 191.493L969.67 192.05L967.433 195.381L966.603 194.824L964.367 198.155L965.197 198.712L962.96 202.043L962.13 201.486L959.894 204.817L960.724 205.375L958.488 208.706L957.657 208.148L955.421 211.479L956.251 212.037L954.015 215.368L953.184 214.81L950.948 218.141L951.778 218.699L949.542 222.03L948.712 221.473L946.475 224.804L947.305 225.361L945.069 228.692L944.239 228.135L942.002 231.466L942.832 232.023L940.596 235.354L939.766 234.797L937.529 238.128L938.359 238.685L936.123 242.017L935.293 241.459L933.056 244.79L933.887 245.348L931.65 248.679L930.82 248.121L928.583 251.452L929.414 252.01L927.177 255.341L926.347 254.783L924.11 258.115L924.941 258.672L922.704 262.003L921.874 261.446L919.638 264.777L920.468 265.334L918.231 268.665L917.401 268.108L915.165 271.439L915.995 271.996L913.758 275.328L912.928 274.77L910.692 278.101L911.522 278.659L909.286 281.99L908.455 281.432L906.219 284.763L907.049 285.321L904.813 288.652L903.982 288.094L901.746 291.426L902.576 291.983L900.34 295.314L899.51 294.757L897.273 298.088L898.103 298.645L895.867 301.976L895.037 301.419L892.8 304.75L893.63 305.307L891.394 308.638L890.564 308.081L888.327 311.412L889.157 311.97L886.921 315.301L886.091 314.743L883.854 318.074L884.685 318.632L882.448 321.963L881.618 321.405L879.381 324.737L880.212 325.294L877.975 328.625L877.145 328.068L874.909 331.399L875.739 331.956L873.502 335.287L872.672 334.73L870.436 338.061L871.266 338.618L869.029 341.949L868.199 341.392L865.963 344.723L866.793 345.281L864.557 348.612L863.726 348.054L861.49 351.385L862.32 351.943L860.084 355.274L859.253 354.716L857.017 358.047L857.847 358.605L855.611 361.936L854.78 361.379L852.544 364.71L853.374 365.267L851.138 368.598L850.307 368.041L848.071 371.372L848.901 371.929L846.665 375.26L845.835 374.703L843.598 378.034L844.428 378.591L842.192 381.923L841.362 381.365L839.125 384.696L839.955 385.254L837.719 388.585L836.889 388.027L834.652 391.359L835.483 391.916L833.246 395.247L832.416 394.69L830.179 398.021L831.01 398.578L828.773 401.909L827.943 401.352L826.825 403.017L826.653 403.274L826.655 403.582L826.67 405.626L827.67 405.619L827.701 409.706L826.701 409.714L826.732 413.801L827.732 413.793L827.763 417.881L826.763 417.888L826.794 421.976L827.794 421.968L827.824 426.056L826.824 426.063L826.855 430.15L827.855 430.143L827.886 434.23L826.886 434.238L826.917 438.325L827.917 438.318L827.948 442.405L826.948 442.413L826.979 446.5L827.978 446.492L828.009 450.58L827.009 450.587L827.04 454.675L828.04 454.667L828.071 458.755L827.071 458.762L827.102 462.849L828.102 462.842L828.133 466.929L827.133 466.937L827.163 471.024L828.163 471.017L828.194 475.104L827.194 475.112L827.225 479.199L828.225 479.192L828.256 483.279L827.256 483.286L827.287 487.374L828.287 487.366L828.317 491.454L827.317 491.461L827.348 495.549L828.348 495.541L828.379 499.628L827.379 499.636L827.41 503.723L828.41 503.716L828.441 507.803L827.441 507.811L827.456 509.854L827.463 510.756L828.36 510.842L830.302 511.03L830.398 510.034L834.282 510.409L834.186 511.404L838.07 511.779L838.166 510.783L842.05 511.158L841.954 512.153L845.838 512.528L845.934 511.532L849.818 511.907L849.722 512.902L853.606 513.277L853.702 512.282L857.586 512.656L857.49 513.651L861.374 514.026L861.47 513.031L865.354 513.405L865.258 514.401L869.142 514.775L869.238 513.78L873.122 514.154L873.026 515.15L876.91 515.524L877.006 514.529L880.89 514.904L880.794 515.899L884.678 516.273L884.774 515.278L888.658 515.653L888.562 516.648L892.446 517.023L892.542 516.027L896.426 516.402L896.33 517.397L900.214 517.772L900.31 516.776L904.194 517.151L904.098 518.146L907.982 518.521L908.078 517.526L911.962 517.9L911.866 518.895L915.75 519.27L915.846 518.275L919.73 518.649L919.634 519.645L923.518 520.019L923.614 519.024L927.498 519.398L927.402 520.394L931.286 520.768L931.382 519.773L935.266 520.147L935.17 521.143L937.112 521.33L937.304 521.349L937.49 521.294L939.36 520.745L939.078 519.785L942.82 518.687L943.101 519.646L946.842 518.548L946.561 517.588L950.302 516.49L950.583 517.449L954.325 516.351L954.043 515.391L957.784 514.293L958.066 515.252L961.807 514.154L961.525 513.194L965.266 512.096L965.548 513.055L969.289 511.957L969.007 510.997L972.749 509.898L973.03 510.858L976.771 509.759L976.49 508.8L980.231 507.701L980.512 508.661L984.254 507.562L983.972 506.603L987.713 505.504L987.995 506.464L991.736 505.365L991.454 504.406L995.195 503.307L995.477 504.267L999.218 503.168L998.936 502.209L1002.68 501.11L1002.96 502.07L1006.7 500.971L1006.42 500.011L1010.16 498.913L1010.44 499.872L1014.18 498.774L1013.9 497.814L1017.64 496.716L1017.92 497.675L1021.66 496.577L1021.38 495.617L1025.12 494.519L1025.41 495.478L1029.15 494.38L1028.87 493.42L1032.61 492.322L1032.7 492.628L1032.54 492.863L1032.82 493.053L1032.89 493.281L1033.08 493.225L1033.37 493.421L1031.15 496.717L1030.32 496.159L1028.1 499.456L1028.93 500.014L1026.72 503.311L1025.89 502.753L1023.67 506.049L1024.5 506.607L1022.28 509.904L1021.45 509.346L1019.23 512.643L1020.06 513.201L1017.85 516.497L1017.02 515.939L1014.8 519.236L1015.63 519.794L1013.41 523.091L1012.58 522.533L1010.36 525.829L1011.19 526.388L1008.98 529.684L1008.15 529.126L1005.93 532.423L1006.76 532.981L1004.54 536.278L1003.71 535.719L1001.5 539.016L1002.32 539.574L1000.11 542.871L999.278 542.313L997.06 545.609L997.89 546.168L995.673 549.464L994.843 548.906L992.626 552.203L993.455 552.761L991.238 556.058L990.408 555.5L988.191 558.796L989.021 559.354L986.803 562.651L985.974 562.093L983.756 565.39L984.586 565.948L982.369 569.244L981.539 568.686L979.321 571.983L980.151 572.541L977.934 575.838L977.104 575.28L974.887 578.576L975.716 579.135L973.499 582.431L972.669 581.873L970.452 585.17L971.282 585.728L969.064 589.025L968.234 588.466L966.017 591.763L966.847 592.321L964.63 595.618L963.8 595.06L961.582 598.356L962.412 598.915L960.195 602.211L959.365 601.653L957.148 604.95L957.977 605.508L955.76 608.805L954.93 608.247L952.713 611.543L953.543 612.101L951.325 615.398L950.495 614.84L948.278 618.137L949.108 618.695L946.89 621.991L946.061 621.433L943.843 624.73L944.673 625.288L942.456 628.585L941.626 628.027L939.409 631.323L940.238 631.881L938.021 635.178L937.191 634.62L934.974 637.917L935.803 638.475L933.586 641.771L932.756 641.213L930.539 644.51L931.369 645.068L929.151 648.365L928.322 647.807L926.104 651.103L926.934 651.661L924.717 654.958L923.887 654.4L921.669 657.697L922.499 658.255L920.282 661.552L919.452 660.994L917.235 664.29L918.064 664.848L915.847 668.145L915.017 667.587L912.8 670.884L913.63 671.442L911.412 674.738L910.583 674.18L908.365 677.477L909.195 678.035L906.978 681.332L906.148 680.774L903.93 684.07L904.76 684.628L902.543 687.925L901.713 687.367L899.496 690.664L900.325 691.222L898.108 694.518L897.278 693.96L895.061 697.257L895.891 697.815L893.673 701.112L892.844 700.554L890.626 703.85L891.456 704.409L889.239 707.705L888.409 707.147L886.191 710.444L887.021 711.002L884.804 714.299L883.974 713.74L881.757 717.037L882.586 717.595L880.369 720.892L879.539 720.334L877.322 723.63L878.152 724.189L875.934 727.485L875.104 726.927L872.887 730.224L873.717 730.782L871.5 734.079L870.67 733.521L868.452 736.817L869.282 737.375L867.065 740.672L866.235 740.114L864.018 743.411L864.847 743.969L862.63 747.265L861.8 746.707L859.583 750.004L860.413 750.562L858.195 753.859L857.365 753.301L855.148 756.597L855.978 757.156L853.76 760.452L852.931 759.894L850.713 763.191L851.543 763.749L849.326 767.046L848.496 766.487L847.789 767.538C847.474 767.452 847.055 767.338 846.537 767.197L846.275 768.162C845.313 767.901 844.007 767.551 842.39 767.123L842.646 766.156C841.494 765.851 840.184 765.507 838.729 765.13L838.477 766.097C837.267 765.783 835.956 765.445 834.549 765.087L834.797 764.118C833.564 763.803 832.259 763.472 830.886 763.128L830.643 764.098C829.391 763.783 828.082 763.457 826.72 763.12L826.96 762.149C825.694 761.836 824.382 761.514 823.027 761.184L822.791 762.156C821.516 761.846 820.203 761.529 818.854 761.205L819.087 760.233C817.804 759.925 816.487 759.612 815.14 759.294L814.91 760.267C813.622 759.963 812.305 759.655 810.962 759.343L811.189 758.369C809.903 758.07 808.593 757.768 807.26 757.464L807.037 758.439C805.745 758.143 804.432 757.846 803.099 757.546L803.319 756.57C802.019 756.278 800.7 755.984 799.364 755.689L799.148 756.665C797.844 756.377 796.522 756.087 795.185 755.797L795.397 754.819C794.095 754.537 792.778 754.253 791.447 753.969L791.238 754.947C789.934 754.669 788.617 754.391 787.287 754.112L787.492 753.134C786.18 752.859 784.856 752.584 783.521 752.311L783.32 753.29C782.008 753.021 780.685 752.752 779.352 752.484L779.549 751.504C778.238 751.24 776.917 750.977 775.587 750.716L775.394 751.697C774.077 751.438 772.752 751.18 771.42 750.924L771.609 749.942C770.289 749.688 768.961 749.435 767.627 749.185L767.442 750.168C766.125 749.92 764.801 749.675 763.472 749.431L763.652 748.448C762.328 748.205 760.999 747.965 759.664 747.727L759.489 748.712C758.165 748.476 756.836 748.242 755.504 748.011L755.675 747.026C754.824 746.879 753.972 746.733 753.119 746.588C752.641 746.507 752.163 746.426 751.685 746.346L751.52 747.332C750.192 747.109 748.86 746.889 747.527 746.672L747.688 745.685C746.356 745.469 745.023 745.256 743.689 745.047L743.534 746.035C742.202 745.826 740.869 745.621 739.536 745.42L739.685 744.431C738.35 744.229 737.014 744.032 735.678 743.839L735.535 744.828C734.2 744.635 732.864 744.447 731.53 744.262L731.667 743.272C730.327 743.087 728.988 742.906 727.65 742.731L727.52 743.722C726.182 743.547 724.846 743.376 723.512 743.211L723.635 742.219C722.29 742.052 720.948 741.891 719.608 741.735L719.493 742.728C718.149 742.572 716.808 742.422 715.472 742.277L715.579 741.283C714.234 741.138 712.893 740.999 711.556 740.866L711.457 741.861C710.107 741.727 708.762 741.599 707.422 741.479L707.512 740.483C706.841 740.422 706.171 740.363 705.503 740.307L705.501 740.306C704.866 740.253 704.227 740.2 703.584 740.148L703.504 741.145C702.236 741.043 700.953 740.943 699.658 740.846L699.733 739.849C698.459 739.754 697.174 739.662 695.879 739.572L695.81 740.57C694.537 740.481 693.255 740.396 691.964 740.313L692.028 739.315C691.417 739.276 690.803 739.237 690.188 739.198C689.52 739.157 688.849 739.116 688.177 739.076L688.118 740.074C686.841 739.998 685.558 739.924 684.269 739.852L684.325 738.853C683.045 738.782 681.76 738.713 680.471 738.646L680.419 739.645C679.139 739.578 677.855 739.514 676.569 739.452L676.617 738.453C675.333 738.391 674.048 738.332 672.762 738.274L672.717 739.273C671.433 739.215 670.149 739.16 668.865 739.106L668.907 738.107C667.621 738.053 666.335 738.002 665.052 737.952L665.013 738.951C663.727 738.901 662.442 738.854 661.161 738.808L661.197 737.808C659.908 737.762 658.622 737.718 657.341 737.676L657.308 738.675C656.018 738.633 654.732 738.592 653.454 738.553L653.484 737.553C652.191 737.514 650.905 737.477 649.626 737.441L649.599 738.441C648.305 738.405 647.019 738.371 645.744 738.339L645.769 737.339C645.176 737.324 644.584 737.31 643.995 737.296C643.298 737.279 642.603 737.263 641.912 737.247L641.89 738.247C640.593 738.218 639.308 738.19 638.037 738.165L638.058 737.165C636.758 737.139 635.473 737.114 634.204 737.092L634.187 738.092C632.881 738.069 631.594 738.048 630.326 738.029L630.341 737.029C629.032 737.009 627.745 736.992 626.481 736.976L626.469 737.976C625.16 737.96 623.876 737.946 622.62 737.934L622.63 736.934C621.311 736.921 620.021 736.911 618.766 736.902L618.759 737.902C617.437 737.894 616.151 737.887 614.905 737.883L614.909 736.883C613.574 736.879 612.285 736.877 611.046 736.878L611.046 737.878C609.703 737.878 608.42 737.882 607.201 737.888L607.196 736.888C606.535 736.891 605.893 736.895 605.27 736.9L604.745 736.904L604.45 737.339L603.321 739.006L604.149 739.567L601.89 742.902L601.062 742.341L598.803 745.675L599.631 746.236L597.372 749.57L596.545 749.01L594.286 752.344L595.114 752.905L592.855 756.239L592.027 755.678L589.768 759.013L590.596 759.573L588.338 762.908L587.51 762.347L585.251 765.681L586.079 766.242L583.82 769.577L582.992 769.016L580.734 772.35L581.562 772.911L579.303 776.245L578.475 775.684L576.216 779.019L577.044 779.58L574.785 782.914L573.958 782.353L571.699 785.688L572.527 786.248L570.268 789.583L569.44 789.022L567.181 792.356L568.009 792.917L565.751 796.252L564.923 795.691L562.664 799.025L563.492 799.586L561.233 802.92L560.405 802.359L558.146 805.694L558.974 806.255L556.716 809.589L555.888 809.028L553.629 812.363L554.457 812.923L552.198 816.258L551.37 815.697L549.112 819.031L549.94 819.592L547.681 822.927L546.853 822.366L544.594 825.7L545.422 826.261L543.163 829.595L542.336 829.034L540.077 832.369L540.905 832.93L538.646 836.264L537.818 835.703L535.559 839.038L536.387 839.598L534.129 842.933L533.301 842.372L531.042 845.706L531.87 846.267L529.611 849.602L528.783 849.041L526.525 852.375L527.353 852.936L525.094 856.27L524.266 855.709L522.007 859.044L522.835 859.605L520.576 862.939L519.748 862.378L517.49 865.713L518.318 866.273L516.059 869.608L515.231 869.047L512.972 872.381L513.8 872.942L511.542 876.277L510.714 875.716L508.455 879.05L509.283 879.611L507.024 882.945L506.196 882.385L503.938 885.719L504.765 886.28L502.507 889.614L501.679 889.053L499.42 892.388L500.248 892.948L497.989 896.283L497.161 895.722L494.903 899.056L495.731 899.617L493.472 902.952L492.644 902.391L490.385 905.725L491.213 906.286L488.954 909.62L488.126 909.06L485.868 912.394L486.696 912.955L484.437 916.289L483.609 915.728L481.35 919.063L482.178 919.624L479.92 922.958L479.092 922.397L476.833 925.731L477.661 926.292L475.402 929.627L474.574 929.066L472.316 932.4L473.143 932.961L470.885 936.295L470.057 935.735L467.798 939.069L468.626 939.63L466.367 942.964L465.539 942.403L463.281 945.738L464.109 946.299L461.85 949.633L461.022 949.072L458.763 952.406L459.591 952.967L457.333 956.302L456.505 955.741L454.246 959.075L455.074 959.636L452.815 962.97L451.987 962.41L449.728 965.744L450.556 966.305L448.298 969.639L447.47 969.078L445.211 972.413L446.039 972.974L443.78 976.308L442.952 975.747L440.694 979.081L441.521 979.642L439.263 982.977L438.435 982.416L436.176 985.75L437.004 986.311L434.745 989.645L433.917 989.084L431.659 992.419L432.487 992.98L430.228 996.314L429.4 995.753L427.141 999.088L427.969 999.648L425.711 1002.98L424.883 1002.42L422.624 1005.76L423.452 1006.32L421.193 1009.65L420.365 1009.09L418.107 1012.43L418.935 1012.99L416.676 1016.32L415.848 1015.76L413.589 1019.09L414.417 1019.65L412.158 1022.99L411.33 1022.43L409.072 1025.76L409.9 1026.32L407.641 1029.66L406.813 1029.1L404.554 1032.43L405.382 1032.99L403.124 1036.33L402.296 1035.77L400.037 1039.1L400.865 1039.66L398.606 1043L397.778 1042.43L395.52 1045.77L396.348 1046.33L394.089 1049.66L393.261 1049.1L391.002 1052.44L391.83 1053L389.571 1056.33L388.743 1055.77L388.366 1056.33L387.953 1055.82L387.179 1056.46L384.654 1053.37L385.427 1052.74L382.902 1049.65L382.128 1050.28L379.602 1047.2L380.376 1046.56L377.851 1043.48L377.077 1044.11L374.551 1041.02L375.325 1040.39L372.799 1037.3L372.026 1037.94L369.5 1034.85L370.274 1034.22L367.748 1031.13L366.974 1031.76L364.449 1028.68L365.223 1028.04L362.697 1024.96L361.923 1025.59L359.398 1022.5L360.171 1021.87L357.646 1018.78L356.872 1019.42L354.346 1016.33L355.12 1015.7L352.595 1012.61L351.821 1013.24L349.295 1010.16L350.069 1009.52L347.543 1006.44L346.769 1007.07L344.244 1003.98L345.018 1003.35L342.492 1000.26L341.718 1000.9L339.193 997.809L339.967 997.176L337.441 994.089L336.667 994.722L334.141 991.636L334.915 991.002L332.39 987.916L331.616 988.549L329.09 985.462L329.864 984.829L327.339 981.742L326.565 982.375L324.039 979.289L324.813 978.656L322.287 975.569L321.513 976.202L318.988 973.115L319.762 972.482L317.236 969.395L316.462 970.029L313.937 966.942L314.71 966.309L312.185 963.222L311.411 963.855L308.885 960.769L309.659 960.135L307.134 957.049L306.36 957.682L303.834 954.595L304.608 953.962L302.082 950.875L301.308 951.508L298.783 948.422L299.557 947.788L297.031 944.702L296.257 945.335L293.732 942.248L294.506 941.615L291.98 938.528L291.206 939.161L288.68 936.075L289.454 935.442L286.929 932.355L286.155 932.988L283.629 929.901L284.403 929.268L281.878 926.181L281.104 926.815L278.578 923.728L279.352 923.095L276.826 920.008L276.052 920.641L273.527 917.555L274.301 916.921L271.775 913.835L271.001 914.468L268.475 911.381L269.249 910.748L266.724 907.661L265.95 908.294L263.424 905.208L264.198 904.574L261.673 901.488L260.899 902.121L258.373 899.034L259.147 898.401L256.621 895.314L255.847 895.948L253.322 892.861L254.096 892.228L251.57 889.141L250.796 889.774L248.271 886.687L249.044 886.054L246.519 882.967L245.745 883.601L243.219 880.514L243.993 879.881L241.468 876.794L240.694 877.427L238.168 874.341L238.942 873.707L236.416 870.621L235.643 871.254L233.117 868.167L233.891 867.534L231.365 864.447L230.591 865.08L228.066 861.994L228.84 861.36L226.314 858.274L225.54 858.907L223.014 855.82L223.788 855.187L221.263 852.1L220.489 852.734L217.963 849.647L218.737 849.014L216.212 845.927L215.438 846.56L212.912 843.474L213.686 842.84L211.16 839.754L210.386 840.387L207.861 837.3L208.635 836.667L206.109 833.58L205.335 834.213L202.81 831.127L203.584 830.493L201.058 827.407L200.284 828.04L197.758 824.953L198.532 824.32L196.007 821.233L195.233 821.867L192.707 818.78L193.481 818.147L190.956 815.06L190.182 815.693L187.656 812.607L188.43 811.973L185.904 808.887L185.13 809.52L182.605 806.433L183.379 805.8L180.853 802.713L180.079 803.346L177.554 800.26L178.328 799.626L175.802 796.54L175.028 797.173L172.502 794.086L173.276 793.453L170.751 790.366L169.977 791L167.451 787.913L168.225 787.28L165.7 784.193L164.926 784.826L162.4 781.74L163.174 781.106L160.648 778.02L159.874 778.653L157.349 775.566L158.123 774.933L155.597 771.846L154.823 772.479L152.298 769.393L153.072 768.759L150.546 765.673L149.772 766.306L147.246 763.219L148.02 762.586L145.495 759.499L144.721 760.133L142.195 757.046L142.969 756.413L140.444 753.326L139.67 753.959L137.144 750.872L137.918 750.239L135.392 747.153L134.618 747.786L132.093 744.699L132.867 744.066L130.341 740.979L129.567 741.612L127.042 738.526L127.815 737.892L125.29 734.806L124.516 735.439L121.99 732.352L122.764 731.719L120.239 728.632L119.465 729.266L116.939 726.179L117.713 725.546L115.188 722.459L114.414 723.092L111.888 720.005L112.662 719.372L110.136 716.286L109.362 716.919L106.837 713.832L107.611 713.199L105.085 710.112L104.311 710.745L101.786 707.659L102.56 707.025L100.034 703.939L99.2599 704.572L96.7343 701.485L97.5083 700.852L94.9827 697.765L94.2087 698.399L91.6831 695.312L92.4571 694.679L89.9315 691.592L89.1575 692.225L86.6319 689.139L87.4059 688.505L84.8802 685.419L84.1063 686.052L81.5807 682.965L82.3547 682.332L79.829 679.245L79.0551 679.878L76.5295 676.792L77.3035 676.158L74.7778 673.072L74.0039 673.705L71.4783 670.618L72.2523 669.985L69.7267 666.898L68.9528 667.532L66.4271 664.445L67.201 663.812L64.6755 660.725L63.9016 661.358L61.3759 658.271L62.1498 657.638L59.6243 654.552L58.8503 655.185L56.3247 652.098L57.0986 651.465L54.5731 648.378L53.7991 649.011L51.2735 645.925L52.0474 645.291L49.5219 642.205L48.7479 642.838L46.2223 639.751L46.9962 639.118L44.4706 636.031L43.6967 636.665L41.1711 633.578L41.945 632.945L39.4194 629.858L38.6454 630.491L36.1199 627.405L36.8938 626.771L34.3682 623.685L33.5943 624.318L31.0687 621.231L31.8426 620.598L29.317 617.511L28.543 618.144L26.0175 615.058L26.7914 614.424L24.2658 611.338L23.4919 611.971L20.9662 608.884L21.7402 608.251L19.2146 605.164L18.4406 605.798L15.915 602.711L16.689 602.078L14.1634 598.991L13.3895 599.624L10.8638 596.537L11.6378 595.904L9.11218 592.818L8.33826 593.451L5.81262 590.364L6.58655 589.731L4.06097 586.644L3.28705 587.277L0.761475 584.191L1.5354 583.557L-0.990234 580.471L-1.76416 581.104L-4.28979 578.017L-3.51581 577.384L-6.04144 574.297L-6.81537 574.931L-9.341 571.844L-8.56702 571.211L-11.0927 568.124L-11.8666 568.757L-14.3922 565.671L-13.6182 565.037L-16.1439 561.951L-16.9178 562.584L-19.4434 559.497L-18.6694 558.864L-21.1951 555.777L-21.969 556.41L-24.4946 553.324L-23.7206 552.69L-26.2463 549.604L-27.0202 550.237L-29.5458 547.15L-28.7719 546.517L-31.2974 543.43L-32.0714 544.064L-34.597 540.977L-33.8231 540.344L-36.3487 537.257L-37.1226 537.89L-39.6482 534.803L-38.8743 534.17L-41.3998 531.083L-42.1738 531.717L-44.6994 528.63L-43.9255 527.997L-46.4511 524.91L-47.225 525.543L-49.7506 522.457L-48.9767 521.823L-51.5023 518.737L-52.2762 519.37L-54.8018 516.283L-54.0279 515.65L-56.5535 512.563L-57.3274 513.197L-59.853 510.11L-59.0791 509.477L-61.6047 506.39L-62.3787 507.023L-64.9042 503.937L-64.1302 503.303L-66.6559 500.217L-67.4298 500.85L-69.9554 497.763L-69.1815 497.13L-71.7071 494.043L-72.4811 494.676L-75.0067 491.59L-74.2327 490.956L-76.7583 487.87L-77.5322 488.503L-80.0579 485.416L-79.2839 484.783L-81.8095 481.696L-82.5834 482.33L-85.1091 479.243L-84.3351 478.61L-86.8607 475.523L-87.6346 476.156L-90.1603 473.069L-89.3864 472.436L-91.9119 469.349L-92.6859 469.983L-95.2115 466.896L-94.4375 466.263L-96.9631 463.176L-97.7371 463.809L-100.263 460.723L-99.4887 460.089L-102.014 457.003L-102.788 457.636L-105.314 454.549L-104.54 453.916L-107.065 450.829L-107.839 451.463L-110.365 448.376L-109.591 447.743L-112.117 444.656L-112.891 445.289L-115.416 442.203L-114.642 441.569L-117.168 438.483L-117.942 439.116L-120.468 436.029L-119.694 435.396L-122.219 432.309L-122.993 432.942L-125.519 429.856L-124.745 429.222L-127.27 426.136L-128.044 426.769L-130.57 423.682L-129.796 423.049L-132.322 419.962L-133.095 420.596L-135.621 417.509L-134.847 416.876L-137.373 413.789L-138.147 414.422L-140.672 411.335L-139.898 410.702L-142.424 407.615L-143.198 408.249L-145.724 405.162L-144.95 404.529L-147.475 401.442L-148.249 402.075L-150.775 398.989L-150.001 398.355L-152.526 395.269L-153.3 395.902L-155.826 392.815L-155.052 392.182L-157.578 389.095L-158.352 389.729L-160.877 386.642L-160.103 386.009L-162.629 382.922L-163.403 383.555L-165.928 380.468L-165.154 379.835L-167.68 376.749L-168.454 377.382L-170.98 374.295L-170.206 373.662L-172.731 370.575L-173.505 371.208L-176.031 368.122L-175.257 367.488L-177.782 364.402L-178.556 365.035L-181.082 361.948L-180.308 361.315L-182.834 358.228L-183.608 358.862L-186.133 355.775L-185.359 355.142L-187.885 352.055L-188.659 352.688L-191.184 349.601L-190.41 348.968L-192.936 345.881L-193.71 346.515L-196.236 343.428L-195.462 342.795L-197.987 339.708L-198.761 340.341L-201.287 337.255L-200.513 336.621L-203.038 333.535L-203.812 334.168L-206.338 331.081L-205.564 330.448L-208.09 327.361L-208.864 327.995L-211.389 324.908L-210.615 324.275L-213.141 321.188L-213.915 321.821L-216.44 318.734L-215.666 318.101L-218.192 315.015L-218.966 315.648L-221.492 312.561L-220.718 311.928L-223.243 308.841L-224.017 309.474L-226.543 306.388L-225.769 305.754L-228.294 302.668L-229.068 303.301L-231.594 300.214L-230.82 299.581L-233.346 296.494L-234.12 297.128L-236.645 294.041L-235.871 293.408L-238.397 290.321L-239.171 290.954L-241.696 287.867L-240.922 287.234L-243.448 284.148L-244.222 284.781L-246.748 281.694L-245.974 281.061L-248.499 277.974L-249.273 278.607L-251.799 275.521L-251.025 274.887L-253.55 271.801L-254.324 272.434L-256.85 269.347L-256.076 268.714L-258.602 265.627L-259.376 266.26L-261.901 263.174L-261.127 262.541L-263.653 259.454L-264.427 260.087L-266.953 257L-266.179 256.367L-268.704 253.281L-269.478 253.914L-272.004 250.827L-271.23 250.194L-273.755 247.107L-274.529 247.74L-277.055 244.654L-276.281 244.02L-278.807 240.934L-279.581 241.567L-282.106 238.48L-281.332 237.847L-283.858 234.76L-284.632 235.394L-287.157 232.307L-286.383 231.674L-288.909 228.587L-289.683 229.22L-292.209 226.133L-291.435 225.5L-293.96 222.413L-294.734 223.047L-297.26 219.96L-296.486 219.327L-299.011 216.24L-299.785 216.873L-302.311 213.787L-301.537 213.153L-304.063 210.067L-304.837 210.7L-307.362 207.613L-306.588 206.98L-309.114 203.893L-309.888 204.526L-312.413 201.44L-311.639 200.807L-314.165 197.72L-314.939 198.353L-317.465 195.266L-316.691 194.633L-319.216 191.547L-319.99 192.18L-322.516 189.093L-321.742 188.46L-324.267 185.373L-325.041 186.006L-327.567 182.92L-326.793 182.286L-329.319 179.2L-330.093 179.833L-332.618 176.746L-331.844 176.113L-334.37 173.026L-335.144 173.659L-337.669 170.573L-336.895 169.94L-339.421 166.853L-340.195 167.486L-342.721 164.399L-341.947 163.766L-344.472 160.679L-345.246 161.313L-347.772 158.226L-346.998 157.593L-349.523 154.506L-350.297 155.139L-352.823 152.053L-352.049 151.419L-354.575 148.333L-355.349 148.966L-357.874 145.879L-357.1 145.246L-359.626 142.159L-360.4 142.792L-362.925 139.706L-362.151 139.073L-364.677 135.986L-365.451 136.619L-367.977 133.532L-367.203 132.899L-369.728 129.812L-370.502 130.446L-373.028 127.359L-372.254 126.726L-374.779 123.639L-375.553 124.272L-378.079 121.186L-377.305 120.552L-379.831 117.466L-380.605 118.099L-383.13 115.012L-382.356 114.379L-384.882 111.292L-385.656 111.925L-388.181 108.839L-387.407 108.206L-389.933 105.119L-390.707 105.752L-393.233 102.665L-392.459 102.032L-394.984 98.9454L-395.758 99.5787L-398.284 96.492L-397.51 95.8588L-400.035 92.772L-400.809 93.4053L-403.335 90.3186L-402.561 89.6854L-405.087 86.5986L-405.861 87.2319L-408.386 84.1452L-407.612 83.5119L-410.138 80.4252L-410.912 81.0585L-413.437 77.9718L-412.663 77.3386L-415.189 74.2518L-415.963 74.8851L-418.489 71.7984L-417.715 71.1651L-420.24 68.0784L-421.014 68.7117L-423.54 65.625L-422.766 64.9918L-425.292 61.905L-426.065 62.5383L-428.591 59.4515L-427.817 58.8183L-430.343 55.7316L-431.117 56.3649L-433.642 53.2782L-432.868 52.645L-433.663 51.6737L-432.978 50.6527L-433.808 50.0955L-431.611 46.8211L-430.781 47.3783L-428.583 44.1039L-429.414 43.5467L-427.216 40.2723L-426.386 40.8295L-424.189 37.5551L-425.019 36.9979L-422.822 33.7235L-421.992 34.2807L-419.794 31.0063L-420.625 30.4491L-418.427 27.1747L-417.597 27.7319L-415.4 24.4575L-416.23 23.9003L-414.033 20.6259L-413.202 21.1832L-411.005 17.9088L-411.836 17.3515L-409.638 14.0771L-408.808 14.6343L-406.611 11.36L-407.441 10.8027L-405.244 7.52832L-404.413 8.08557L-402.216 4.81116L-403.046 4.25397L-400.849 0.979553L-400.019 1.5368L-397.822 -1.73761L-398.652 -2.2948L-396.455 -5.56921L-395.624 -5.01202L-393.427 -8.28644L-394.257 -8.84363L-392.06 -12.118L-391.23 -11.5608L-389.032 -14.8352L-389.863 -15.3924L-387.666 -18.6668L-386.835 -18.1096L-384.638 -21.384L-385.468 -21.9412L-383.271 -25.2156L-382.441 -24.6584L-380.243 -27.9328L-381.074 -28.49L-378.876 -31.7644L-378.046 -31.2072L-375.849 -34.4816L-376.679 -35.0388L-374.482 -38.3132L-373.652 -37.756L-371.454 -41.0304L-372.285 -41.5876L-370.087 -44.862L-369.257 -44.3047L-367.06 -47.5792L-367.89 -48.1364L-365.693 -51.4108L-364.863 -50.8536L-362.665 -54.1279L-363.496 -54.6852L-361.298 -57.9595L-360.468 -57.4023L-358.271 -60.6768L-359.101 -61.2339L-356.904 -64.5083L-356.073 -63.9511L-353.876 -67.2255L-354.707 -67.7827L-352.509 -71.0571L-351.679 -70.4999L-349.482 -73.7743L-350.312 -74.3315L-348.115 -77.6059L-347.284 -77.0487L-345.087 -80.3231L-345.918 -80.8803L-343.72 -84.1547L-342.89 -83.5975L-340.693 -86.8718L-341.523 -87.4291L-339.326 -90.7035L-338.495 -90.1462L-336.298 -93.4207L-337.128 -93.9778L-334.931 -97.2523L-334.101 -96.695L-333.002 -98.3323L-332.588 -98.9487L-333.059 -99.5231L-334.334 -101.08L-335.108 -100.446L-337.658 -103.56L-336.885 -104.194L-339.435 -107.308L-340.209 -106.674L-342.759 -109.788L-341.986 -110.422L-344.536 -113.536L-345.31 -112.902L-347.861 -116.016L-347.087 -116.65L-349.638 -119.764L-350.411 -119.13L-352.962 -122.244L-352.188 -122.878L-354.739 -125.992L-355.512 -125.358L-358.063 -128.472L-357.289 -129.106L-359.84 -132.22L-360.613 -131.586L-363.164 -134.7L-362.39 -135.334L-364.941 -138.448L-365.714 -137.814L-368.265 -140.928L-367.491 -141.562L-370.042 -144.675L-370.816 -144.042L-373.366 -147.156L-372.592 -147.789L-375.143 -150.903L-375.917 -150.27L-378.467 -153.384L-377.694 -154.017L-380.244 -157.131L-381.018 -156.498L-383.568 -159.612L-382.795 -160.245L-385.345 -163.359L-386.119 -162.726L-388.669 -165.839L-387.896 -166.473L-390.446 -169.587L-391.22 -168.953L-393.771 -172.067L-392.997 -172.701L-395.547 -175.815L-396.321 -175.181L-398.872 -178.295L-398.098 -178.929L-400.649 -182.043L-401.422 -181.409L-403.973 -184.523L-403.199 -185.157L-405.75 -188.271L-406.523 -187.637L-409.074 -190.751L-408.3 -191.385L-410.851 -194.499L-411.624 -193.865L-414.175 -196.979L-413.401 -197.613L-415.952 -200.727L-416.726 -200.093L-419.276 -203.207L-418.502 -203.841L-421.053 -206.955L-421.827 -206.321L-424.377 -209.435L-423.604 -210.069L-426.154 -213.182L-426.928 -212.549L-429.478 -215.663L-428.705 -216.296L-431.255 -219.41L-432.029 -218.777L-434.579 -221.891L-433.806 -222.524L-436.356 -225.638L-437.13 -225.005L-439.681 -228.119L-438.907 -228.752L-441.457 -231.866L-442.231 -231.233L-444.782 -234.347L-444.008 -234.98L-446.559 -238.094L-447.332 -237.461L-449.883 -240.574L-449.109 -241.208L-451.66 -244.322L-452.433 -243.688L-454.984 -246.802L-454.21 -247.436L-456.761 -250.55L-457.534 -249.916L-460.085 -253.03L-459.311 -253.664L-461.862 -256.778L-462.636 -256.144L-465.186 -259.258L-464.412 -259.892L-466.963 -263.006L-467.737 -262.372L-470.287 -265.486L-469.514 -266.12L-472.064 -269.234L-472.838 -268.6L-475.388 -271.714L-474.615 -272.348L-477.165 -275.462L-477.939 -274.828L-480.489 -277.942L-479.716 -278.576L-482.266 -281.69L-483.04 -281.056L-485.591 -284.17L-484.817 -284.803L-487.367 -287.917L-488.141 -287.284L-490.692 -290.398L-489.918 -291.031L-492.469 -294.145L-493.242 -293.512L-495.793 -296.626L-495.019 -297.259L-497.57 -300.373L-498.343 -299.74L-500.894 -302.854L-500.12 -303.487L-502.671 -306.601L-503.444 -305.968L-505.995 -309.081L-505.221 -309.715L-507.772 -312.829L-508.546 -312.195L-511.096 -315.309L-510.322 -315.943L-512.873 -319.057L-513.647 -318.423L-516.197 -321.537L-515.424 -322.171L-517.974 -325.285L-518.748 -324.651L-521.298 -327.765L-520.525 -328.399L-523.075 -331.513L-523.849 -330.879L-526.399 -333.993L-525.626 -334.627L-528.176 -337.741L-528.95 -337.107L-531.5 -340.221L-530.727 -340.855L-533.277 -343.969L-534.051 -343.335L-536.602 -346.449L-535.828 -347.083L-538.379 -350.197L-539.152 -349.563L-541.703 -352.677L-540.929 -353.311L-543.48 -356.424L-544.253 -355.791L-546.804 -358.905L-546.03 -359.538L-548.581 -362.652L-549.354 -362.019L-551.905 -365.133L-551.131 -365.766L-553.682 -368.88L-554.455 -368.247L-557.006 -371.361L-556.232 -371.994L-558.783 -375.108L-559.557 -374.475L-562.107 -377.589L-561.334 -378.222L-563.884 -381.336L-564.658 -380.702L-567.208 -383.816L-566.435 -384.45L-568.985 -387.564L-569.759 -386.93L-572.309 -390.044L-571.536 -390.678L-574.086 -393.792L-574.86 -393.158L-577.41 -396.272L-576.637 -396.906L-579.187 -400.02L-579.961 -399.386L-582.512 -402.5L-581.738 -403.134L-584.289 -406.248L-585.062 -405.614L-587.613 -408.728L-586.839 -409.362L-589.39 -412.476L-590.163 -411.842L-592.714 -414.956L-591.94 -415.59L-594.491 -418.704L-595.264 -418.07L-597.815 -421.184L-597.041 -421.818L-599.592 -424.931L-600.365 -424.298L-602.916 -427.412L-602.142 -428.045L-604.693 -431.159L-605.467 -430.526L-608.017 -433.64L-607.243 -434.273L-609.794 -437.387L-610.568 -436.754L-613.118 -439.868L-612.345 -440.501L-614.895 -443.615L-615.669 -442.982L-618.219 -446.096L-617.446 -446.729L-619.996 -449.843L-620.77 -449.209L-623.32 -452.323L-622.547 -452.957L-625.097 -456.071L-625.871 -455.437L-628.422 -458.551L-627.648 -459.185L-630.198 -462.299L-630.972 -461.665L-633.523 -464.779L-632.749 -465.413L-635.3 -468.527L-636.073 -467.893L-638.624 -471.007L-637.85 -471.641L-640.401 -474.755L-641.174 -474.121L-643.725 -477.235L-642.951 -477.869L-643.756 -478.851L-643.053 -479.901L-643.883 -480.458L-641.65 -483.79L-640.819 -483.233L-638.586 -486.566L-639.416 -487.122L-637.183 -490.455L-636.352 -489.898L-634.119 -493.23L-634.949 -493.787L-632.716 -497.119L-631.885 -496.562L-629.652 -499.895L-630.482 -500.451L-628.249 -503.783L-627.418 -503.227L-625.185 -506.559L-626.015 -507.116L-623.782 -510.448L-622.951 -509.891L-620.718 -513.223L-621.549 -513.78L-619.315 -517.112L-618.484 -516.556L-616.251 -519.888L-617.082 -520.445L-614.848 -523.777L-614.017 -523.22L-611.784 -526.552L-612.615 -527.109L-610.381 -530.441L-609.55 -529.884L-607.317 -533.217L-608.148 -533.773L-605.914 -537.106L-605.084 -536.549L-602.85 -539.881L-603.681 -540.438L-601.447 -543.77L-600.617 -543.213L-598.383 -546.546L-599.214 -547.102L-596.98 -550.434L-596.15 -549.878L-593.916 -553.21L-594.747 -553.767L-592.513 -557.099L-591.683 -556.542L-589.449 -559.874L-590.28 -560.431L-588.046 -563.763L-587.216 -563.207L-584.982 -566.539L-585.813 -567.096L-583.579 -570.428L-582.749 -569.871L-580.515 -573.203L-581.346 -573.76L-579.113 -577.092L-578.282 -576.535L-576.048 -579.868L-576.879 -580.424L-574.646 -583.757L-573.815 -583.2L-571.581 -586.532L-572.412 -587.089L-570.179 -590.421L-569.348 -589.864L-567.115 -593.197L-567.945 -593.753L-565.712 -597.085L-564.881 -596.529L-562.648 -599.861L-563.478 -600.418L-561.245 -603.75L-560.414 -603.193L-558.181 -606.525L-559.011 -607.082L-556.778 -610.414L-555.947 -609.858L-553.714 -613.19L-554.544 -613.747L-552.311 -617.079L-551.48 -616.522L-549.247 -619.854L-550.077 -620.411L-547.844 -623.743L-547.013 -623.186L-544.78 -626.519L-545.61 -627.075L-543.377 -630.408L-542.546 -629.851L-540.313 -633.183L-541.144 -633.74L-538.91 -637.072L-538.079 -636.515L-535.846 -639.847L-536.677 -640.404L-534.443 -643.736L-533.612 -643.18L-531.379 -646.512L-532.21 -647.069L-529.976 -650.401L-529.145 -649.844L-526.912 -653.176L-527.743 -653.733L-525.509 -657.065L-524.679 -656.509L-522.445 -659.841L-523.276 -660.398L-521.042 -663.73L-520.212 -663.173L-517.978 -666.505L-518.809 -667.062L-516.575 -670.394L-515.745 -669.837L-513.511 -673.17L-514.342 -673.726L-512.108 -677.059L-511.278 -676.502L-509.044 -679.834L-509.875 -680.391L-507.641 -683.723L-506.811 -683.166L-504.577 -686.498L-505.408 -687.055L-503.174 -690.387L-502.344 -689.831L-500.11 -693.163L-500.941 -693.72L-498.708 -697.052L-497.877 -696.495L-495.643 -699.827L-496.474 -700.384L-494.241 -703.716L-493.41 -703.16L-491.176 -706.492L-492.007 -707.049L-489.774 -710.381L-488.943 -709.824L-486.709 -713.156L-487.54 -713.713L-485.307 -717.045L-484.476 -716.489L-482.242 -719.821L-483.073 -720.378L-480.84 -723.71L-480.009 -723.153L-477.775 -726.485L-478.606 -727.042L-476.373 -730.374L-475.542 -729.817L-473.309 -733.15L-474.139 -733.706L-471.906 -737.039L-471.075 -736.482L-468.842 -739.814L-469.672 -740.371L-467.439 -743.703L-466.608 -743.146L-464.375 -746.479L-465.205 -747.035L-462.972 -750.368L-462.141 -749.811L-459.908 -753.143L-460.738 -753.7L-458.505 -757.032L-457.674 -756.475L-455.441 -759.807L-456.271 -760.364L-454.038 -763.696L-453.207 -763.14L-450.974 -766.472L-451.804 -767.029L-449.571 -770.361L-448.74 -769.804L-446.507 -773.136L-447.337 -773.693L-445.104 -777.025L-444.273 -776.469L-442.04 -779.801L-442.87 -780.358L-440.637 -783.69L-439.806 -783.133L-437.573 -786.465L-438.404 -787.022L-436.17 -790.354L-435.339 -789.797L-433.106 -793.13L-433.937 -793.686L-431.703 -797.019L-430.872 -796.462L-428.639 -799.794L-429.47 -800.351L-427.236 -803.683L-426.405 -803.126L-424.172 -806.459L-425.003 -807.015L-422.769 -810.348L-421.938 -809.791L-419.705 -813.123L-420.536 -813.68L-418.302 -817.012L-417.472 -816.455L-415.238 -819.788L-416.069 -820.344L-413.835 -823.677L-413.005 -823.12L-410.771 -826.452L-411.602 -827.009L-409.368 -830.341L-408.538 -829.784L-406.304 -833.116L-407.135 -833.673L-404.901 -837.005L-404.071 -836.449L-401.837 -839.781L-402.668 -840.338L-400.434 -843.67L-399.604 -843.113L-397.37 -846.445L-398.201 -847.002L-395.967 -850.334L-395.137 -849.778L-394.317 -851H-392.853V-852H-388.858V-851H-384.863V-852H-380.868V-851H-376.873V-852H-372.878V-851H-368.883V-852H-364.888V-851H-360.892V-852H-356.897V-851H-352.902V-852H-348.907V-851H-344.912V-852H-340.917V-851H-336.922V-852H-332.927V-851H-328.931V-852H-324.936V-851H-320.941V-852H-316.946V-851H-312.951V-852H-308.956V-851H-304.961V-852H-300.966V-851H-296.971V-852H-292.975V-851H-288.98V-852H-284.985V-851H-280.99V-852H-276.995V-851H-273V-852H-269.005V-851H-265.01V-852H-261.014V-851H-257.019V-852H-253.024V-851H-249.029V-852H-245.034V-851H-241.039V-852H-237.044V-851H-233.049V-852H-229.054V-851H-225.058V-852H-221.063V-851H-217.068V-852H-213.073V-851H-209.078V-852H-205.083V-851H-201.088V-852H-197.093V-851H-193.098V-852H-189.102V-851H-185.107V-852H-181.112V-851H-177.117V-852H-173.122V-851H-169.127V-852H-165.132V-851H-161.137V-852H-157.141V-851H-153.146V-852H-149.151V-851H-145.156V-852H-141.161V-851H-137.166V-852H-133.171V-851H-129.176V-852H-125.181V-851H-121.185V-852H-117.19V-851H-113.195V-852H-109.2V-851H-105.205V-852H-101.21V-851H-97.2147V-852H-93.2196V-851H-89.2245V-852H-85.2294V-851H-81.2343V-852H-77.2391V-851H-73.244V-852H-69.2489V-851H-65.2538V-852H-61.2587V-851H-57.2635V-852H-53.2684V-851H-49.2733V-852H-45.2782V-851H-41.2831V-852H-37.288V-851H-33.2928V-852H-29.2977V-851H-25.3026V-852H-21.3075V-851H-17.3124V-852H-13.3173V-851H-9.32214V-852H-5.32703V-851H-1.33191V-852H2.66321V-851H6.65833V-852H10.6534V-851H14.6486V-852H18.6437V-851H22.6388V-852H26.6339V-851H30.629V-852H34.6241V-851H38.6193V-852H42.6144V-851H46.6095V-852H50.6046V-851H54.5997V-852H58.5948V-851H62.59V-852H66.5851V-851H70.5802V-852H74.5753V-851H78.5704V-852H82.5656V-851H86.5607V-852H90.5558V-851H94.5509V-852H98.546V-851H102.541V-852H106.536V-851H110.531V-852H114.526V-851H118.522V-852H122.517V-851H126.512V-852H130.507V-851H134.502V-852H138.497V-851H142.492V-852H146.487V-851H150.483V-852H154.478V-851H158.473V-852H162.468V-851H166.463V-852H170.458V-851H174.453V-852H178.448V-851H182.443V-852H186.439V-851H190.434V-852H194.429V-851H198.424V-852H202.419V-851H206.414V-852H210.409V-851H214.404V-852H218.4V-851H222.395V-852H226.39V-851H230.385V-852H234.38V-851H238.375V-852H242.37V-851H246.365V-852H250.361V-851H254.356V-852H258.351V-851H262.346V-852H266.341V-851H270.336V-852H274.331V-851H278.326V-852H282.321V-851H286.317V-852H290.312V-851H294.307V-852H298.302V-851H302.297V-852H306.292V-851H310.287V-852H314.282V-851H318.277V-852H322.273V-851H326.268V-852H330.263V-851H334.258V-852H338.253V-851H342.248V-852H346.243V-851H350.238V-852H354.234V-851H358.229V-852H362.224V-851H366.219V-852H370.214V-851H374.209V-852H378.204V-851H382.199V-852H386.194V-851H390.19V-852H394.185V-851H398.18V-852H402.175V-851H406.17V-852H410.165V-851H414.16V-852H418.155V-851H422.151V-852H426.146V-851H430.141V-852H434.136V-851H438.131V-852H442.126V-851H446.121V-852H450.116V-851H454.111V-852H458.107V-851H462.102V-852H466.097V-851H470.092V-852H474.087V-851H478.082V-852H482.077V-851H486.072V-852H490.068V-851H494.063V-852H498.058V-851H502.053V-852H506.048V-851H510.043V-852H514.038V-851H518.033V-852H522.028V-851H526.024V-852H530.019V-851H534.014V-852H538.009V-851H542.004V-852H545.999V-851H549.994V-852H553.989V-851H557.984V-852H561.98V-851H565.975V-852H569.97V-851H573.965V-852H577.96V-851H581.955V-852H585.95V-851H589.945V-852H593.941V-851H597.936V-852H601.931V-851H605.926V-852H609.921V-851H613.916V-852H617.911V-851H621.906V-852H625.901V-851H629.897V-852H633.892V-851H637.887V-852H641.882V-851H645.877V-852H649.872V-851H653.867V-852H657.862V-851H661.858V-852H665.853V-851H669.848V-852H673.843V-851H677.838V-852H681.833V-851H685.828V-852H689.823V-851H693.818V-852H697.814V-851H701.809V-852H705.804V-851H709.799V-852H713.794V-851H717.789V-852H721.784V-851H725.779V-852H729.775V-851H733.77V-852H737.765V-851H741.76V-852H745.755V-851H749.75V-852H753.745V-851H757.74V-852H761.735V-851H765.731V-852H769.726V-851H773.721V-852H777.716V-851H781.711V-852H785.706V-851H789.701V-852H793.696V-851H797.692V-852H801.687V-851H805.682V-852H809.677V-851H813.672V-852H817.667V-851H821.662V-852H825.657V-851H827.413L828.972 -850.197L829.43 -851.086L832.98 -849.258L832.523 -848.369L836.073 -846.54L836.531 -847.429L840.081 -845.601L839.624 -844.712L843.174 -842.884L843.632 -843.773L847.182 -841.945L846.724 -841.056L850.275 -839.227L850.733 -840.116L854.283 -838.288L853.825 -837.399L857.376 -835.571L857.833 -836.46L861.384 -834.632L860.926 -833.742L864.476 -831.914L864.934 -832.803L868.485 -830.975L868.027 -830.086L871.577 -828.258L872.035 -829.147L875.585 -827.319L875.128 -826.429L878.678 -824.601L879.136 -825.49L882.686 -823.662L882.228 -822.773L885.779 -820.945L886.237 -821.834L889.787 -820.005L889.329 -819.116L892.88 -817.288L893.337 -818.177L896.888 -816.349L896.43 -815.46L899.98 -813.632L900.438 -814.521L903.989 -812.692L903.531 -811.803L907.081 -809.975L907.539 -810.864L911.089 -809.036L910.632 -808.147L914.182 -806.319L914.64 -807.208L918.19 -805.379L917.733 -804.49L921.283 -802.662L921.741 -803.551L925.291 -801.723L924.833 -800.834L928.384 -799.006L928.842 -799.895L932.392 -798.066L931.934 -797.177L935.484 -795.349L935.942 -796.238L939.493 -794.41L939.035 -793.521L942.585 -791.693L943.043 -792.582L946.594 -790.753L946.136 -789.864L949.686 -788.036L950.144 -788.925L953.694 -787.097L953.237 -786.208L956.787 -784.38L957.245 -785.269L960.795 -783.44L960.337 -782.551L963.888 -780.723L964.346 -781.612L967.896 -779.784L967.438 -778.895L970.989 -777.067L971.446 -777.956L974.997 -776.127L974.539 -775.238L978.089 -773.41L978.547 -774.299L982.098 -772.471L981.64 -771.582L985.19 -769.753L985.648 -770.643L989.198 -768.814L988.741 -767.925L992.291 -766.097L992.749 -766.986L996.299 -765.158L995.841 -764.269L999.392 -762.44L999.85 -763.329L1003.4 -761.501L1002.94 -760.612L1006.49 -758.784L1006.95 -759.673L1010.5 -757.845L1010.04 -756.956L1013.59 -755.127L1014.05 -756.016L1017.6 -754.188L1017.14 -753.299L1020.69 -751.471L1021.15 -752.36L1024.7 -750.532L1024.24 -749.643L1027.8 -747.814L1028.25 -748.703L1031.8 -746.875L1031.35 -745.986L1034.9 -744.158L1035.35 -745.047L1038.9 -743.219L1038.45 -742.33L1042 -740.501L1042.45 -741.39L1046.01 -739.562L1045.55 -738.673L1049.1 -736.845L1049.56 -737.734L1053.11 -735.906L1052.65 -735.017L1056.2 -733.188L1056.66 -734.077L1060.21 -732.249L1059.75 -731.36L1063.3 -729.532L1063.76 -730.421L1067.31 -728.593L1066.85 -727.704L1070.4 -725.875L1070.86 -726.764L1074.41 -724.936L1073.95 -724.047L1077.5 -722.219L1077.96 -723.108L1081.51 -721.28L1081.05 -720.39L1084.6 -718.562L1085.06 -719.451L1088.61 -717.623L1088.15 -716.734L1091.7 -714.906L1092.16 -715.795L1095.71 -713.966L1095.25 -713.077L1098.8 -711.249L1099.26 -712.138L1102.81 -710.31L1102.35 -709.421L1105.9 -707.593L1106.36 -708.482L1109.91 -706.653L1109.45 -705.764L1113.01 -703.936L1113.46 -704.825L1117.01 -702.997L1116.56 -702.108L1120.11 -700.28L1120.56 -701.169L1124.11 -699.34L1123.66 -698.451L1127.21 -696.623L1127.66 -697.512L1131.22 -695.684L1130.76 -694.795L1134.31 -692.967L1134.77 -693.856L1138.32 -692.027L1137.86 -691.138L1141.41 -689.31L1141.87 -690.199L1145.42 -688.371L1144.96 -687.482L1148.51 -685.653L1148.97 -686.543L1152.52 -684.714L1152.06 -683.825L1155.61 -681.997L1156.07 -682.886L1159.62 -681.058L1159.16 -680.169L1162.71 -678.34L1163.17 -679.229L1166.72 -677.401L1166.26 -676.512L1169.81 -674.684L1170.27 -675.573L1173.82 -673.745L1173.36 -672.856L1176.91 -671.027L1177.37 -671.916L1180.92 -670.088L1180.46 -669.199L1184.01 -667.371L1184.47 -668.26L1188.02 -666.432L1187.56 -665.543L1191.11 -663.714L1191.57 -664.603L1195.12 -662.775L1194.66 -661.886L1198.22 -660.058L1198.67 -660.947L1202.22 -659.119L1201.77 -658.229L1205.32 -656.401L1205.77 -657.29L1209.32 -655.462L1208.87 -654.573L1212.42 -652.745L1212.87 -653.634L1216.43 -651.805L1215.97 -650.916L1219.52 -649.088L1219.98 -649.977L1223.53 -648.149L1223.07 -647.26L1226.62 -645.432L1227.08 -646.321L1230.63 -644.492L1230.17 -643.603L1233.72 -641.775L1234.18 -642.664L1237.73 -640.836L1237.27 -639.947L1240.82 -638.119L1241.28 -639.008L1244.83 -637.179L1244.37 -636.29L1247.92 -634.462L1248.38 -635.351L1251.93 -633.523L1251.47 -632.634L1255.02 -630.806L1255.48 -631.695L1259.03 -629.866L1258.57 -628.977L1262.12 -627.149L1262.58 -628.038L1266.13 -626.21L1265.67 -625.321L1269.22 -623.492L1269.68 -624.382L1273.23 -622.553L1272.77 -621.664L1276.32 -619.836L1276.78 -620.725L1280.33 -618.897L1279.87 -618.008L1283.43 -616.179L1283.88 -617.068L1287.43 -615.24L1286.98 -614.351L1290.53 -612.523L1290.98 -613.412L1294.53 -611.584L1294.08 -610.695L1297.63 -608.866L1298.08 -609.755L1301.64 -607.927L1301.18 -607.038L1304.73 -605.21L1305.19 -606.099L1308.74 -604.271L1308.28 -603.382L1311.83 -601.553L1312.29 -602.442L1315.84 -600.614L1315.38 -599.725L1318.93 -597.897L1319.39 -598.786L1322.94 -596.958L1322.48 -596.069L1326.03 -594.24L1326.49 -595.129L1330.04 -593.301L1329.58 -592.412L1333.13 -590.584L1333.59 -591.473L1337.14 -589.645L1336.68 -588.756L1340.23 -586.927L1340.69 -587.816L1344.24 -585.988L1343.78 -585.099L1347.33 -583.271L1347.79 -584.16L1351.34 -582.332L1350.88 -581.443L1354.43 -579.614L1354.89 -580.503L1358.44 -578.675L1357.98 -577.786L1361.53 -575.958L1361.99 -576.847L1365.54 -575.019L1365.08 -574.13L1368.63 -572.301L1369.09 -573.19L1372.64 -571.362L1372.19 -570.473L1375.74 -568.645L1376.19 -569.534L1379.74 -567.706L1379.29 -566.817L1382.84 -564.988L1383.29 -565.877L1386.84 -564.049L1386.39 -563.16L1389.94 -561.332L1390.39 -562.221L1393.95 -560.393L1393.49 -559.504L1397.04 -557.675L1397.5 -558.564L1401.05 -556.736L1400.59 -555.847L1404.14 -554.019L1404.6 -554.908L1408.15 -553.08L1407.69 -552.191L1411.24 -550.362L1411.7 -551.251L1415.25 -549.423L1414.79 -548.534L1418.34 -546.706L1418.8 -547.595L1422.35 -545.767L1421.89 -544.878L1425.44 -543.049L1425.9 -543.938L1429.45 -542.11L1428.99 -541.221L1432.54 -539.393L1433 -540.282L1436.55 -538.454L1436.09 -537.565L1439.64 -535.736L1440.1 -536.625L1443.65 -534.797L1443.19 -533.908L1446.74 -532.08L1447.2 -532.969L1450.75 -531.141L1450.29 -530.252L1451.08 -529.848L1450.59 -529.12L1451.43 -528.568L1449.23 -525.251L1448.4 -525.804L1446.2 -522.487L1447.03 -521.935L1444.84 -518.618L1444 -519.17L1441.81 -515.853L1442.64 -515.301L1440.44 -511.985L1439.61 -512.537L1437.41 -509.22L1438.25 -508.668L1436.05 -505.351L1435.22 -505.903L1433.02 -502.587L1433.85 -502.034L1431.66 -498.718L1430.82 -499.27L1428.62 -495.953L1429.46 -495.401L1427.26 -492.084L1426.43 -492.636L1424.23 -489.32L1425.06 -488.767L1422.87 -485.451L1422.03 -486.003L1419.84 -482.686L1420.67 -482.134L1418.47 -478.817L1417.64 -479.369L1415.44 -476.053L1416.28 -475.501L1414.08 -472.184L1413.25 -472.736L1411.05 -469.419L1411.88 -468.867L1409.69 -465.55L1408.85 -466.103L1406.65 -462.786L1407.49 -462.234L1405.29 -458.917L1404.46 -459.469L1402.26 -456.152L1403.09 -455.6L1400.9 -452.283L1400.06 -452.836L1397.87 -449.519L1398.7 -448.967L1396.5 -445.65L1395.67 -446.202L1393.47 -442.885L1394.31 -442.333L1392.11 -439.016L1391.28 -439.569L1389.08 -436.252L1389.91 -435.7L1387.72 -432.383L1386.88 -432.935L1384.68 -429.618L1385.52 -429.066L1383.32 -425.75L1382.49 -426.302L1380.29 -422.985L1381.12 -422.433L1378.93 -419.116L1378.09 -419.668L1375.9 -416.352L1376.73 -415.799L1374.53 -412.483L1373.7 -413.035L1371.5 -409.718L1372.34 -409.166L1370.14 -405.849L1369.31 -406.401L1367.11 -403.085L1367.94 -402.532L1365.75 -399.216L1364.91 -399.768L1362.71 -396.451L1363.55 -395.899L1361.35 -392.582L1360.52 -393.135L1358.32 -389.818L1359.15 -389.266L1356.96 -385.949L1356.12 -386.501L1353.93 -383.184L1354.76 -382.632L1352.56 -379.315L1351.73 -379.868L1349.53 -376.551L1350.37 -375.999L1348.17 -372.682L1347.34 -373.234L1345.14 -369.917L1345.97 -369.365L1343.78 -366.048L1342.94 -366.601L1340.74 -363.284L1341.58 -362.732L1339.38 -359.415L1338.55 -359.967L1336.35 -356.651L1337.18 -356.098L1334.99 -352.782L1334.15 -353.334L1331.96 -350.017L1332.79 -349.465L1330.59 -346.148L1329.76 -346.7L1327.56 -343.384L1328.4 -342.831L1326.2 -339.515L1325.37 -340.067L1323.17 -336.75L1324 -336.198L1321.8 -332.881L1320.97 -333.433L1318.77 -330.117L1319.61 -329.565L1317.41 -326.248L1316.58 -326.8L1314.38 -323.483L1315.21 -322.931L1313.02 -319.614L1312.18 -320.167L1309.99 -316.85L1310.82 -316.298L1308.62 -312.981L1307.79 -313.533L1306.69 -311.875L1306.07 -310.944L1307.07 -310.433L1308.83 -309.525L1309.29 -310.414L1312.81 -308.598L1312.36 -307.709L1315.88 -305.893L1316.34 -306.782L1319.87 -304.966L1319.41 -304.077L1322.94 -302.261L1323.39 -303.15L1326.92 -301.334L1326.46 -300.445L1329.99 -298.629L1330.45 -299.518L1333.97 -297.702L1333.51 -296.813L1337.04 -294.997L1337.5 -295.886L1341.02 -294.07L1340.57 -293.181L1344.09 -291.365L1344.55 -292.254L1348.08 -290.438L1347.62 -289.549L1351.15 -287.733L1351.6 -288.622L1355.13 -286.806L1354.67 -285.917L1358.2 -284.101L1358.66 -284.99L1362.18 -283.174L1361.72 -282.285L1365.25 -280.469L1365.71 -281.358L1369.24 -279.542L1368.78 -278.653L1372.3 -276.837L1372.76 -277.726L1376.29 -275.91L1375.83 -275.021L1379.36 -273.205L1379.81 -274.094L1383.34 -272.278L1382.88 -271.389L1386.41 -269.573L1386.87 -270.462L1390.39 -268.646L1389.94 -267.757L1393.46 -265.941L1393.92 -266.83L1397.45 -265.014L1396.99 -264.125L1400.51 -262.309L1400.97 -263.198L1404.5 -261.382L1404.04 -260.492L1407.57 -258.676L1408.03 -259.565L1411.55 -257.749L1411.09 -256.86L1414.62 -255.044L1415.08 -255.933L1418.6 -254.117L1418.15 -253.228L1421.67 -251.412L1422.13 -252.301L1425.66 -250.485L1425.2 -249.596L1428.73 -247.78L1429.18 -248.669L1432.71 -246.853L1432.25 -245.964L1435.78 -244.148L1436.24 -245.037L1439.76 -243.221L1439.3 -242.332L1442.83 -240.516L1443.29 -241.405L1446.82 -239.589L1446.36 -238.7L1449.88 -236.884L1450.34 -237.773L1453.87 -235.957L1453.41 -235.068L1456.94 -233.252L1457.39 -234.141L1460.92 -232.325L1460.46 -231.436L1463.99 -229.62L1464.45 -230.509L1467.97 -228.693L1467.52 -227.804L1471.04 -225.988L1471.5 -226.877L1475.03 -225.061L1474.57 -224.172L1478.09 -222.356L1478.55 -223.245L1482.08 -221.429L1481.62 -220.54L1485.15 -218.724L1485.61 -219.613L1489.13 -217.797L1488.67 -216.908L1492.2 -215.092L1492.66 -215.981L1496.18 -214.165L1495.73 -213.276L1499.25 -211.46L1499.71 -212.349L1503.24 -210.533L1502.78 -209.643L1503.54 -209.25Z" fill="#191814" stroke="#C2191E" stroke-width="2" stroke-dasharray="4 4"/>
</svg>
