<svg width="1366" height="1058" viewBox="0 0 1366 1058" fill="none" xmlns="http://www.w3.org/2000/svg">
  <path d="M1505 -209.625L1306.59 86.041L1227.15 45.5961L975.261 183.722L827.655 403.575L828.456 509.847L937.208 520.335L1034.48 491.772L848.217 768.694C848.217 768.694 769.574 746.77 705.418 741.303C671.57 738.458 626.708 737.733 605.278 737.9L388.442 1058L-434.907 51.7327L-333.833 -98.8895L-645 -478.792L-394.851 -852H827.655L1452.53 -530.227L1307.52 -311.322L1505 -209.625Z" fill="#191814"/>
  <path d="M1505 -209.625L1306.59 86.041L1227.15 45.5961L975.261 183.722L827.655 403.575L828.456 509.847L937.208 520.335L1034.48 491.772L848.217 768.694C848.217 768.694 769.574 746.77 705.418 741.303C671.57 738.458 626.708 737.733 605.278 737.9L388.442 1058L-434.907 51.7327L-333.833 -98.8895L-645 -478.792L-394.851 -852H827.655L1452.53 -530.227L1307.52 -311.322L1505 -209.625Z" stroke="#C2191E"/>
</svg>
