<svg width="1366" height="1129" viewBox="0 0 1366 1129" fill="none" xmlns="http://www.w3.org/2000/svg">
  <path d="M1617.54 -138.25L1617.07 -137.539L1617.9 -136.982L1615.69 -133.697L1614.86 -134.254L1612.66 -130.969L1613.49 -130.412L1611.28 -127.126L1610.45 -127.684L1608.25 -124.398L1609.08 -123.841L1606.88 -120.556L1606.04 -121.113L1603.84 -117.828L1604.67 -117.271L1602.47 -113.986L1601.64 -114.543L1599.43 -111.258L1600.26 -110.701L1598.06 -107.415L1597.23 -107.973L1595.02 -104.688L1595.85 -104.13L1593.65 -100.845L1592.82 -101.402L1590.61 -98.1171L1591.44 -97.5599L1589.24 -94.2748L1588.41 -94.832L1586.2 -91.5468L1587.03 -90.9896L1584.83 -87.7043L1584 -88.2616L1581.79 -84.9764L1582.62 -84.4193L1580.42 -81.134L1579.59 -81.6913L1577.39 -78.4061L1578.22 -77.8489L1576.01 -74.5637L1575.18 -75.1209L1572.98 -71.8358L1573.81 -71.2786L1571.6 -67.9933L1570.77 -68.5506L1568.57 -65.2654L1569.4 -64.7082L1567.19 -61.423L1566.36 -61.9802L1564.16 -58.6951L1564.99 -58.1378L1562.78 -54.8527L1561.95 -55.4099L1559.75 -52.1248L1560.58 -51.5675L1558.37 -48.2823L1557.54 -48.8395L1555.34 -45.5544L1556.17 -44.9971L1553.97 -41.712L1553.14 -42.2692L1550.93 -38.984L1551.76 -38.4268L1549.56 -35.1416L1548.73 -35.6989L1546.52 -32.4137L1547.35 -31.8565L1545.15 -28.5713L1544.32 -29.1285L1542.11 -25.8433L1542.94 -25.2861L1540.74 -22.0009L1539.91 -22.5582L1537.7 -19.273L1538.53 -18.7158L1536.33 -15.4306L1535.5 -15.9878L1533.29 -12.7026L1534.12 -12.1454L1531.92 -8.86029L1531.09 -9.41748L1528.89 -6.13232L1529.72 -5.57513L1527.51 -2.28992L1526.68 -2.84711L1524.48 0.438049L1525.31 0.9953L1523.1 4.28046L1522.27 3.72321L1520.07 7.00836L1520.9 7.56561L1518.69 10.8508L1517.86 10.2936L1515.66 13.5787L1516.49 14.1359L1514.28 17.4211L1513.45 16.8639L1511.25 20.1491L1512.08 20.7063L1509.87 23.9915L1509.04 23.4343L1506.84 26.7194L1507.67 27.2767L1505.47 30.5618L1504.64 30.0046L1502.43 33.2898L1503.26 33.847L1501.06 37.1321L1500.23 36.575L1498.02 39.8601L1498.85 40.4174L1496.65 43.7025L1495.82 43.1453L1493.61 46.4305L1494.44 46.9877L1492.24 50.2729L1491.41 49.7156L1489.2 53.0008L1490.03 53.558L1487.83 56.8432L1487 56.286L1484.79 59.5712L1485.62 60.1284L1483.42 63.4136L1482.59 62.8563L1480.39 66.1415L1481.22 66.6987L1479.01 69.9839L1478.18 69.4267L1475.98 72.7119L1476.81 73.2691L1474.6 76.5542L1473.77 75.997L1471.57 79.2822L1472.4 79.8394L1470.19 83.1246L1469.36 82.5673L1467.16 85.8525L1467.99 86.4097L1465.78 89.6948L1464.95 89.1376L1462.75 92.4228L1463.58 92.98L1461.37 96.2652L1460.54 95.7079L1458.34 98.9931L1459.17 99.5504L1456.97 102.836L1456.13 102.278L1453.93 105.563L1454.76 106.121L1452.56 109.406L1451.73 108.849L1449.52 112.134L1450.35 112.691L1448.15 115.976L1447.32 115.419L1445.11 118.704L1445.94 119.261L1443.74 122.546L1442.91 121.989L1440.7 125.274L1441.53 125.832L1439.33 129.117L1438.5 128.56L1436.29 131.845L1437.12 132.402L1434.92 135.687L1434.09 135.13L1431.88 138.415L1432.72 138.972L1430.51 142.257L1429.68 141.7L1427.48 144.985L1428.31 145.543L1426.1 148.828L1425.27 148.271L1423.07 151.556L1423.9 152.113L1421.69 155.398L1420.86 154.841L1420.25 155.748L1419.24 155.231L1418.78 156.122L1415.17 154.283L1415.63 153.392L1412.02 151.554L1411.56 152.445L1407.95 150.607L1408.4 149.715L1404.79 147.877L1404.34 148.768L1400.73 146.93L1401.18 146.039L1397.57 144.2L1397.12 145.091L1393.51 143.253L1393.96 142.362L1390.35 140.523L1389.9 141.415L1386.28 139.576L1386.74 138.685L1383.13 136.847L1382.67 137.738L1379.06 135.899L1379.52 135.008L1375.9 133.17L1375.45 134.061L1371.84 132.223L1372.29 131.331L1368.68 129.493L1368.23 130.384L1364.62 128.546L1365.07 127.655L1361.46 125.816L1361.01 126.707L1357.4 124.869L1357.85 123.978L1354.24 122.139L1353.78 123.031L1350.17 121.192L1350.63 120.301L1347.02 118.463L1346.56 119.354L1342.95 117.515L1343.41 116.624L1341.6 115.705L1341.13 115.465L1340.66 115.719L1338.92 116.679L1339.4 117.555L1335.9 119.474L1335.42 118.597L1331.92 120.515L1332.4 121.392L1328.9 123.311L1328.42 122.434L1324.92 124.352L1325.4 125.229L1321.9 127.147L1321.42 126.271L1317.93 128.189L1318.41 129.066L1314.91 130.984L1314.43 130.107L1310.93 132.026L1311.41 132.903L1307.91 134.821L1307.43 133.944L1303.93 135.863L1304.41 136.74L1300.91 138.658L1300.43 137.781L1296.93 139.7L1297.42 140.576L1293.92 142.495L1293.44 141.618L1289.94 143.536L1290.42 144.413L1286.92 146.332L1286.44 145.455L1282.94 147.373L1283.42 148.25L1279.92 150.168L1279.44 149.292L1275.94 151.21L1276.43 152.087L1272.93 154.005L1272.45 153.128L1268.95 155.047L1269.43 155.924L1265.93 157.842L1265.45 156.965L1261.95 158.884L1262.43 159.761L1258.93 161.679L1258.45 160.802L1254.95 162.721L1255.43 163.597L1251.94 165.516L1251.46 164.639L1247.96 166.557L1248.44 167.434L1244.94 169.353L1244.46 168.476L1240.96 170.394L1241.44 171.271L1237.94 173.189L1237.46 172.313L1233.96 174.231L1234.44 175.108L1230.95 177.026L1230.47 176.149L1226.97 178.068L1227.45 178.945L1223.95 180.863L1223.47 179.986L1219.97 181.905L1220.45 182.782L1216.95 184.7L1216.47 183.823L1212.97 185.742L1213.45 186.618L1209.96 188.537L1209.47 187.66L1205.98 189.578L1206.46 190.455L1202.96 192.374L1202.48 191.497L1198.98 193.415L1199.46 194.292L1195.96 196.211L1195.48 195.334L1191.98 197.252L1192.46 198.129L1188.97 200.047L1188.48 199.171L1184.99 201.089L1185.47 201.966L1181.97 203.884L1181.49 203.007L1177.99 204.926L1178.47 205.803L1174.97 207.721L1174.49 206.844L1170.99 208.763L1171.47 209.639L1167.97 211.558L1167.49 210.681L1164 212.599L1164.48 213.476L1160.98 215.395L1160.5 214.518L1157 216.436L1157.48 217.313L1153.98 219.232L1153.5 218.355L1150 220.273L1150.48 221.15L1146.98 223.068L1146.5 222.192L1143.01 224.11L1143.49 224.987L1139.99 226.905L1139.51 226.028L1136.01 227.947L1136.49 228.824L1132.99 230.742L1132.51 229.865L1129.01 231.784L1129.49 232.661L1125.99 234.579L1125.51 233.702L1122.01 235.621L1122.5 236.497L1119 238.416L1118.52 237.539L1115.02 239.457L1115.5 240.334L1112 242.253L1111.52 241.376L1108.02 243.294L1108.5 244.171L1105 246.089L1104.52 245.213L1101.02 247.131L1101.51 248.008L1098.01 249.926L1097.53 249.049L1094.03 250.968L1094.51 251.845L1091.01 253.763L1090.53 252.886L1088.78 253.845L1088.57 253.963L1088.43 254.165L1087.31 255.83L1088.14 256.388L1085.91 259.719L1085.08 259.161L1082.84 262.493L1083.67 263.05L1081.43 266.381L1080.6 265.824L1078.37 269.155L1079.2 269.712L1076.96 273.043L1076.13 272.486L1073.89 275.817L1074.72 276.375L1072.49 279.706L1071.66 279.148L1069.42 282.479L1070.25 283.037L1068.01 286.368L1067.18 285.81L1064.95 289.141L1065.78 289.699L1063.54 293.03L1062.71 292.473L1060.48 295.804L1061.31 296.361L1059.07 299.692L1058.24 299.135L1056 302.466L1056.83 303.023L1054.6 306.354L1053.77 305.797L1051.53 309.128L1052.36 309.685L1050.12 313.017L1049.29 312.459L1047.06 315.79L1047.89 316.348L1045.65 319.679L1044.82 319.121L1042.58 322.452L1043.41 323.01L1041.18 326.341L1040.35 325.783L1038.11 329.115L1038.94 329.672L1036.7 333.003L1035.87 332.446L1033.64 335.777L1034.47 336.334L1032.23 339.665L1031.4 339.108L1029.16 342.439L1029.99 342.996L1027.76 346.328L1026.93 345.77L1024.69 349.101L1025.52 349.659L1023.29 352.99L1022.46 352.432L1020.22 355.763L1021.05 356.321L1018.81 359.652L1017.98 359.094L1015.75 362.426L1016.58 362.983L1014.34 366.314L1013.51 365.757L1011.27 369.088L1012.1 369.645L1009.87 372.976L1009.04 372.419L1006.8 375.75L1007.63 376.307L1005.39 379.638L1004.56 379.081L1002.33 382.412L1003.16 382.97L1000.92 386.301L1000.09 385.743L997.854 389.074L998.685 389.632L996.448 392.963L995.618 392.405L993.381 395.737L994.212 396.294L991.975 399.625L991.145 399.068L988.909 402.399L989.739 402.956L987.502 406.287L986.672 405.73L984.436 409.061L985.266 409.618L983.029 412.949L982.199 412.392L979.963 415.723L980.793 416.281L978.557 419.612L977.726 419.054L975.49 422.385L976.32 422.943L974.084 426.274L973.253 425.716L971.017 429.047L971.847 429.605L969.611 432.936L968.78 432.379L966.544 435.71L967.374 436.267L965.138 439.598L964.307 439.041L962.071 442.372L962.901 442.929L960.665 446.26L959.835 445.703L957.598 449.034L958.428 449.591L956.192 452.923L955.362 452.365L953.125 455.696L953.955 456.254L951.719 459.585L950.889 459.027L948.652 462.359L949.483 462.916L947.246 466.247L946.416 465.69L944.179 469.021L945.01 469.578L942.773 472.909L941.943 472.352L940.825 474.017L940.653 474.274L940.655 474.582L940.67 476.626L941.67 476.619L941.701 480.706L940.701 480.714L940.732 484.801L941.732 484.793L941.763 488.881L940.763 488.888L940.794 492.976L941.794 492.968L941.824 497.056L940.824 497.063L940.855 501.15L941.855 501.143L941.886 505.23L940.886 505.238L940.917 509.325L941.917 509.318L941.948 513.405L940.948 513.413L940.979 517.5L941.978 517.492L942.009 521.58L941.009 521.587L941.04 525.675L942.04 525.667L942.071 529.755L941.071 529.762L941.102 533.849L942.102 533.842L942.133 537.929L941.133 537.937L941.163 542.024L942.163 542.017L942.194 546.104L941.194 546.112L941.225 550.199L942.225 550.192L942.256 554.279L941.256 554.286L941.287 558.374L942.287 558.366L942.317 562.454L941.317 562.461L941.348 566.549L942.348 566.541L942.379 570.628L941.379 570.636L941.41 574.723L942.41 574.716L942.441 578.803L941.441 578.811L941.456 580.854L941.463 581.756L942.36 581.842L944.302 582.03L944.398 581.034L948.282 581.409L948.186 582.404L952.07 582.779L952.166 581.783L956.05 582.158L955.954 583.153L959.838 583.528L959.934 582.532L963.818 582.907L963.722 583.902L967.606 584.277L967.702 583.282L971.586 583.656L971.49 584.651L975.374 585.026L975.47 584.031L979.354 584.405L979.258 585.401L983.142 585.775L983.238 584.78L987.122 585.154L987.026 586.15L990.91 586.524L991.006 585.529L994.89 585.904L994.794 586.899L998.678 587.273L998.774 586.278L1002.66 586.653L1002.56 587.648L1006.45 588.023L1006.54 587.027L1010.43 587.402L1010.33 588.397L1014.21 588.772L1014.31 587.776L1018.19 588.151L1018.1 589.146L1021.98 589.521L1022.08 588.526L1025.96 588.9L1025.87 589.895L1029.75 590.27L1029.85 589.275L1033.73 589.649L1033.63 590.645L1037.52 591.019L1037.61 590.024L1041.5 590.398L1041.4 591.394L1045.29 591.768L1045.38 590.773L1049.27 591.147L1049.17 592.143L1051.11 592.33L1051.3 592.349L1051.49 592.294L1053.36 591.745L1053.08 590.785L1056.82 589.687L1057.1 590.646L1060.84 589.548L1060.56 588.588L1064.3 587.49L1064.58 588.449L1068.32 587.351L1068.04 586.391L1071.78 585.293L1072.07 586.252L1075.81 585.154L1075.53 584.194L1079.27 583.096L1079.55 584.055L1083.29 582.957L1083.01 581.997L1086.75 580.898L1087.03 581.858L1090.77 580.759L1090.49 579.8L1094.23 578.701L1094.51 579.661L1098.25 578.562L1097.97 577.603L1101.71 576.504L1101.99 577.464L1105.74 576.365L1105.45 575.406L1109.2 574.307L1109.48 575.267L1113.22 574.168L1112.94 573.209L1116.68 572.11L1116.96 573.07L1120.7 571.971L1120.42 571.011L1124.16 569.913L1124.44 570.872L1128.18 569.774L1127.9 568.814L1131.64 567.716L1131.92 568.675L1135.66 567.577L1135.38 566.617L1139.12 565.519L1139.41 566.478L1143.15 565.38L1142.87 564.42L1146.61 563.322L1146.7 563.628L1146.54 563.863L1146.82 564.053L1146.89 564.281L1147.08 564.225L1147.37 564.421L1145.15 567.717L1144.32 567.159L1142.1 570.456L1142.93 571.014L1140.72 574.311L1139.89 573.753L1137.67 577.049L1138.5 577.607L1136.28 580.904L1135.45 580.346L1133.23 583.643L1134.06 584.201L1131.85 587.497L1131.02 586.939L1128.8 590.236L1129.63 590.794L1127.41 594.091L1126.58 593.533L1124.36 596.829L1125.19 597.388L1122.98 600.684L1122.15 600.126L1119.93 603.423L1120.76 603.981L1118.54 607.278L1117.71 606.719L1115.5 610.016L1116.32 610.574L1114.11 613.871L1113.28 613.313L1111.06 616.609L1111.89 617.168L1109.67 620.464L1108.84 619.906L1106.63 623.203L1107.46 623.761L1105.24 627.058L1104.41 626.5L1102.19 629.796L1103.02 630.354L1100.8 633.651L1099.97 633.093L1097.76 636.39L1098.59 636.948L1096.37 640.244L1095.54 639.686L1093.32 642.983L1094.15 643.541L1091.93 646.838L1091.1 646.28L1088.89 649.576L1089.72 650.135L1087.5 653.431L1086.67 652.873L1084.45 656.17L1085.28 656.728L1083.06 660.025L1082.23 659.466L1080.02 662.763L1080.85 663.321L1078.63 666.618L1077.8 666.06L1075.58 669.356L1076.41 669.915L1074.19 673.211L1073.36 672.653L1071.15 675.95L1071.98 676.508L1069.76 679.805L1068.93 679.247L1066.71 682.543L1067.54 683.101L1065.33 686.398L1064.5 685.84L1062.28 689.137L1063.11 689.695L1060.89 692.991L1060.06 692.433L1057.84 695.73L1058.67 696.288L1056.46 699.585L1055.63 699.027L1053.41 702.323L1054.24 702.881L1052.02 706.178L1051.19 705.62L1048.97 708.917L1049.8 709.475L1047.59 712.771L1046.76 712.213L1044.54 715.51L1045.37 716.068L1043.15 719.365L1042.32 718.807L1040.1 722.103L1040.93 722.661L1038.72 725.958L1037.89 725.4L1035.67 728.697L1036.5 729.255L1034.28 732.552L1033.45 731.994L1031.23 735.29L1032.06 735.848L1029.85 739.145L1029.02 738.587L1026.8 741.884L1027.63 742.442L1025.41 745.738L1024.58 745.18L1022.37 748.477L1023.19 749.035L1020.98 752.332L1020.15 751.774L1017.93 755.07L1018.76 755.628L1016.54 758.925L1015.71 758.367L1013.5 761.664L1014.33 762.222L1012.11 765.518L1011.28 764.96L1009.06 768.257L1009.89 768.815L1007.67 772.112L1006.84 771.554L1004.63 774.85L1005.46 775.409L1003.24 778.705L1002.41 778.147L1000.19 781.444L1001.02 782.002L998.804 785.299L997.974 784.74L995.757 788.037L996.586 788.595L994.369 791.892L993.539 791.334L991.322 794.63L992.152 795.189L989.934 798.485L989.104 797.927L986.887 801.224L987.717 801.782L985.5 805.079L984.67 804.521L982.452 807.817L983.282 808.375L981.065 811.672L980.235 811.114L978.018 814.411L978.847 814.969L976.63 818.265L975.8 817.707L973.583 821.004L974.413 821.562L972.195 824.859L971.365 824.301L969.148 827.597L969.978 828.156L967.76 831.452L966.931 830.894L964.713 834.191L965.543 834.749L963.326 838.046L962.496 837.487L961.789 838.538C961.474 838.452 961.055 838.338 960.537 838.197L960.275 839.162C959.313 838.901 958.007 838.551 956.39 838.123L956.646 837.156C955.494 836.851 954.184 836.507 952.729 836.13L952.477 837.097C951.267 836.783 949.956 836.445 948.549 836.087L948.797 835.118C947.564 834.803 946.259 834.472 944.886 834.128L944.643 835.098C943.391 834.783 942.082 834.457 940.72 834.12L940.96 833.149C939.694 832.836 938.382 832.514 937.027 832.184L936.791 833.156C935.516 832.846 934.203 832.529 932.854 832.205L933.087 831.233C931.804 830.925 930.487 830.612 929.14 830.294L928.91 831.267C927.622 830.963 926.305 830.655 924.962 830.343L925.189 829.369C923.903 829.07 922.593 828.768 921.26 828.464L921.037 829.439C919.745 829.143 918.432 828.846 917.099 828.546L917.319 827.57C916.019 827.278 914.7 826.984 913.364 826.689L913.148 827.665C911.844 827.377 910.522 827.087 909.185 826.797L909.397 825.819C908.095 825.537 906.778 825.253 905.447 824.969L905.238 825.947C903.934 825.669 902.617 825.391 901.287 825.112L901.492 824.134C900.18 823.859 898.856 823.584 897.521 823.311L897.32 824.29C896.008 824.021 894.685 823.752 893.352 823.484L893.549 822.504C892.238 822.24 890.917 821.977 889.587 821.716L889.394 822.697C888.077 822.438 886.752 822.18 885.42 821.924L885.609 820.942C884.289 820.688 882.961 820.435 881.627 820.185L881.442 821.168C880.125 820.92 878.801 820.675 877.472 820.431L877.652 819.448C876.328 819.205 874.999 818.965 873.664 818.727L873.489 819.712C872.165 819.476 870.836 819.242 869.504 819.011L869.675 818.026C868.824 817.879 867.972 817.733 867.119 817.588C866.641 817.507 866.163 817.426 865.685 817.346L865.52 818.332C864.192 818.109 862.86 817.889 861.527 817.672L861.688 816.685C860.356 816.469 859.023 816.256 857.689 816.047L857.534 817.035C856.202 816.826 854.869 816.621 853.536 816.42L853.685 815.431C852.35 815.229 851.014 815.032 849.678 814.839L849.535 815.828C848.2 815.635 846.864 815.447 845.53 815.262L845.667 814.272C844.327 814.087 842.988 813.906 841.65 813.731L841.52 814.722C840.182 814.547 838.846 814.376 837.512 814.211L837.635 813.219C836.29 813.052 834.948 812.891 833.608 812.735L833.493 813.728C832.149 813.572 830.808 813.422 829.472 813.277L829.579 812.283C828.234 812.138 826.893 811.999 825.556 811.866L825.457 812.861C824.107 812.727 822.762 812.599 821.422 812.479L821.512 811.483C820.841 811.422 820.171 811.363 819.503 811.307L819.501 811.306C818.866 811.253 818.227 811.2 817.584 811.148L817.504 812.145C816.236 812.043 814.953 811.943 813.658 811.846L813.733 810.849C812.459 810.754 811.174 810.662 809.879 810.572L809.81 811.57C808.537 811.481 807.255 811.396 805.964 811.313L806.028 810.315C805.417 810.276 804.803 810.237 804.188 810.198C803.52 810.157 802.849 810.116 802.177 810.076L802.118 811.074C800.841 810.998 799.558 810.924 798.269 810.852L798.325 809.853C797.045 809.782 795.76 809.713 794.471 809.646L794.419 810.645C793.139 810.578 791.855 810.514 790.569 810.452L790.617 809.453C789.333 809.391 788.048 809.332 786.762 809.274L786.717 810.273C785.433 810.215 784.149 810.16 782.865 810.106L782.907 809.107C781.621 809.053 780.335 809.002 779.052 808.952L779.013 809.951C777.727 809.901 776.442 809.854 775.161 809.808L775.197 808.808C773.908 808.762 772.622 808.718 771.341 808.676L771.308 809.675C770.018 809.633 768.732 809.592 767.454 809.553L767.484 808.553C766.191 808.514 764.905 808.477 763.626 808.441L763.599 809.441C762.305 809.405 761.019 809.371 759.744 809.339L759.769 808.339C759.176 808.324 758.584 808.31 757.995 808.296C757.298 808.279 756.603 808.263 755.912 808.247L755.89 809.247C754.593 809.218 753.308 809.19 752.037 809.165L752.058 808.165C750.758 808.139 749.473 808.114 748.204 808.092L748.187 809.092C746.881 809.069 745.594 809.048 744.326 809.029L744.341 808.029C743.032 808.009 741.745 807.992 740.481 807.976L740.469 808.976C739.16 808.96 737.876 808.946 736.62 808.934L736.63 807.934C735.311 807.921 734.021 807.911 732.766 807.902L732.759 808.902C731.437 808.894 730.151 808.887 728.905 808.883L728.909 807.883C727.574 807.879 726.285 807.877 725.046 807.878L725.046 808.878C723.703 808.878 722.42 808.882 721.201 808.888L721.196 807.888C720.535 807.891 719.893 807.895 719.27 807.9L718.745 807.904L718.45 808.339L717.321 810.006L718.149 810.567L715.89 813.902L715.062 813.341L712.803 816.675L713.631 817.236L711.372 820.57L710.545 820.01L708.286 823.344L709.114 823.905L706.855 827.239L706.027 826.678L703.768 830.013L704.596 830.573L702.338 833.908L701.51 833.347L699.251 836.681L700.079 837.242L697.82 840.577L696.992 840.016L694.734 843.35L695.562 843.911L693.303 847.245L692.475 846.684L690.216 850.019L691.044 850.58L688.785 853.914L687.958 853.353L685.699 856.688L686.527 857.248L684.268 860.583L683.44 860.022L681.181 863.356L682.009 863.917L679.751 867.252L678.923 866.691L676.664 870.025L677.492 870.586L675.233 873.92L674.405 873.359L672.146 876.694L672.974 877.255L670.716 880.589L669.888 880.028L667.629 883.363L668.457 883.923L666.198 887.258L665.37 886.697L663.112 890.031L663.94 890.592L661.681 893.927L660.853 893.366L658.594 896.7L659.422 897.261L657.163 900.595L656.336 900.034L654.077 903.369L654.905 903.93L652.646 907.264L651.818 906.703L649.559 910.038L650.387 910.598L648.129 913.933L647.301 913.372L645.042 916.706L645.87 917.267L643.611 920.602L642.783 920.041L640.525 923.375L641.353 923.936L639.094 927.27L638.266 926.709L636.007 930.044L636.835 930.605L634.576 933.939L633.748 933.378L631.49 936.713L632.318 937.273L630.059 940.608L629.231 940.047L626.972 943.381L627.8 943.942L625.542 947.277L624.714 946.716L622.455 950.05L623.283 950.611L621.024 953.945L620.196 953.385L617.938 956.719L618.765 957.28L616.507 960.614L615.679 960.053L613.42 963.388L614.248 963.948L611.989 967.283L611.161 966.722L608.903 970.056L609.731 970.617L607.472 973.952L606.644 973.391L604.385 976.725L605.213 977.286L602.954 980.62L602.126 980.06L599.868 983.394L600.696 983.955L598.437 987.289L597.609 986.728L595.35 990.063L596.178 990.624L593.92 993.958L593.092 993.397L590.833 996.731L591.661 997.292L589.402 1000.63L588.574 1000.07L586.316 1003.4L587.143 1003.96L584.885 1007.3L584.057 1006.73L581.798 1010.07L582.626 1010.63L580.367 1013.96L579.539 1013.4L577.281 1016.74L578.109 1017.3L575.85 1020.63L575.022 1020.07L572.763 1023.41L573.591 1023.97L571.333 1027.3L570.505 1026.74L568.246 1030.08L569.074 1030.64L566.815 1033.97L565.987 1033.41L563.728 1036.74L564.556 1037.3L562.298 1040.64L561.47 1040.08L559.211 1043.41L560.039 1043.97L557.78 1047.31L556.952 1046.75L554.694 1050.08L555.521 1050.64L553.263 1053.98L552.435 1053.42L550.176 1056.75L551.004 1057.31L548.745 1060.65L547.917 1060.08L545.659 1063.42L546.487 1063.98L544.228 1067.31L543.4 1066.75L541.141 1070.09L541.969 1070.65L539.711 1073.98L538.883 1073.42L536.624 1076.76L537.452 1077.32L535.193 1080.65L534.365 1080.09L532.107 1083.43L532.935 1083.99L530.676 1087.32L529.848 1086.76L527.589 1090.09L528.417 1090.65L526.158 1093.99L525.33 1093.43L523.072 1096.76L523.9 1097.32L521.641 1100.66L520.813 1100.1L518.554 1103.43L519.382 1103.99L517.124 1107.33L516.296 1106.77L514.037 1110.1L514.865 1110.66L512.606 1114L511.778 1113.43L509.52 1116.77L510.348 1117.33L508.089 1120.66L507.261 1120.1L505.002 1123.44L505.83 1124L503.571 1127.33L502.743 1126.77L502.366 1127.33L501.953 1126.82L501.179 1127.46L498.654 1124.37L499.427 1123.74L496.902 1120.65L496.128 1121.28L493.602 1118.2L494.376 1117.56L491.851 1114.48L491.077 1115.11L488.551 1112.02L489.325 1111.39L486.799 1108.3L486.026 1108.94L483.5 1105.85L484.274 1105.22L481.748 1102.13L480.974 1102.76L478.449 1099.68L479.223 1099.04L476.697 1095.96L475.923 1096.59L473.398 1093.5L474.171 1092.87L471.646 1089.78L470.872 1090.42L468.346 1087.33L469.12 1086.7L466.595 1083.61L465.821 1084.24L463.295 1081.16L464.069 1080.52L461.543 1077.44L460.769 1078.07L458.244 1074.98L459.018 1074.35L456.492 1071.26L455.718 1071.9L453.193 1068.81L453.967 1068.18L451.441 1065.09L450.667 1065.72L448.141 1062.64L448.915 1062L446.39 1058.92L445.616 1059.55L443.09 1056.46L443.864 1055.83L441.339 1052.74L440.565 1053.38L438.039 1050.29L438.813 1049.66L436.287 1046.57L435.513 1047.2L432.988 1044.12L433.762 1043.48L431.236 1040.4L430.462 1041.03L427.937 1037.94L428.71 1037.31L426.185 1034.22L425.411 1034.86L422.885 1031.77L423.659 1031.14L421.134 1028.05L420.36 1028.68L417.834 1025.6L418.608 1024.96L416.082 1021.88L415.308 1022.51L412.783 1019.42L413.557 1018.79L411.031 1015.7L410.257 1016.33L407.732 1013.25L408.506 1012.61L405.98 1009.53L405.206 1010.16L402.68 1007.07L403.454 1006.44L400.929 1003.35L400.155 1003.99L397.629 1000.9L398.403 1000.27L395.878 997.181L395.104 997.815L392.578 994.728L393.352 994.095L390.826 991.008L390.052 991.641L387.527 988.555L388.301 987.921L385.775 984.835L385.001 985.468L382.475 982.381L383.249 981.748L380.724 978.661L379.95 979.294L377.424 976.208L378.198 975.574L375.673 972.488L374.899 973.121L372.373 970.034L373.147 969.401L370.621 966.314L369.847 966.948L367.322 963.861L368.096 963.228L365.57 960.141L364.796 960.774L362.271 957.687L363.044 957.054L360.519 953.967L359.745 954.601L357.219 951.514L357.993 950.881L355.468 947.794L354.694 948.427L352.168 945.341L352.942 944.707L350.416 941.621L349.643 942.254L347.117 939.167L347.891 938.534L345.365 935.447L344.591 936.08L342.066 932.994L342.84 932.36L340.314 929.274L339.54 929.907L337.014 926.82L337.788 926.187L335.263 923.1L334.489 923.734L331.963 920.647L332.737 920.014L330.212 916.927L329.438 917.56L326.912 914.474L327.686 913.84L325.16 910.754L324.386 911.387L321.861 908.3L322.635 907.667L320.109 904.58L319.335 905.213L316.81 902.127L317.584 901.493L315.058 898.407L314.284 899.04L311.758 895.953L312.532 895.32L310.007 892.233L309.233 892.867L306.707 889.78L307.481 889.147L304.956 886.06L304.182 886.693L301.656 883.607L302.43 882.973L299.904 879.887L299.13 880.52L296.605 877.433L297.379 876.8L294.853 873.713L294.079 874.346L291.554 871.26L292.328 870.626L289.802 867.54L289.028 868.173L286.502 865.086L287.276 864.453L284.751 861.366L283.977 862L281.451 858.913L282.225 858.28L279.7 855.193L278.926 855.826L276.4 852.74L277.174 852.106L274.648 849.02L273.874 849.653L271.349 846.566L272.123 845.933L269.597 842.846L268.823 843.479L266.298 840.393L267.072 839.759L264.546 836.673L263.772 837.306L261.246 834.219L262.02 833.586L259.495 830.499L258.721 831.133L256.195 828.046L256.969 827.413L254.444 824.326L253.67 824.959L251.144 821.872L251.918 821.239L249.392 818.153L248.618 818.786L246.093 815.699L246.867 815.066L244.341 811.979L243.567 812.612L241.042 809.526L241.815 808.892L239.29 805.806L238.516 806.439L235.99 803.352L236.764 802.719L234.239 799.632L233.465 800.266L230.939 797.179L231.713 796.546L229.188 793.459L228.414 794.092L225.888 791.005L226.662 790.372L224.136 787.286L223.362 787.919L220.837 784.832L221.611 784.199L219.085 781.112L218.311 781.745L215.786 778.659L216.56 778.025L214.034 774.939L213.26 775.572L210.734 772.485L211.508 771.852L208.983 768.765L208.209 769.399L205.683 766.312L206.457 765.679L203.931 762.592L203.158 763.225L200.632 760.139L201.406 759.505L198.88 756.419L198.106 757.052L195.581 753.965L196.355 753.332L193.829 750.245L193.055 750.878L190.53 747.792L191.303 747.158L188.778 744.072L188.004 744.705L185.478 741.618L186.252 740.985L183.727 737.898L182.953 738.532L180.427 735.445L181.201 734.812L178.675 731.725L177.902 732.358L175.376 729.271L176.15 728.638L173.624 725.552L172.85 726.185L170.325 723.098L171.099 722.465L168.573 719.378L167.799 720.011L165.273 716.925L166.047 716.291L163.522 713.205L162.748 713.838L160.222 710.751L160.996 710.118L158.471 707.031L157.697 707.665L155.171 704.578L155.945 703.945L153.419 700.858L152.645 701.491L150.12 698.405L150.894 697.771L148.368 694.685L147.594 695.318L145.069 692.231L145.843 691.598L143.317 688.511L142.543 689.144L140.017 686.058L140.791 685.424L138.266 682.338L137.492 682.971L134.966 679.884L135.74 679.251L133.215 676.164L132.441 676.798L129.915 673.711L130.689 673.078L128.163 669.991L127.389 670.624L124.864 667.537L125.638 666.904L123.112 663.818L122.338 664.451L119.813 661.364L120.587 660.731L118.061 657.644L117.287 658.277L114.761 655.191L115.535 654.557L113.01 651.471L112.236 652.104L109.71 649.017L110.484 648.384L107.959 645.297L107.185 645.931L104.659 642.844L105.433 642.211L102.907 639.124L102.133 639.757L99.6078 636.671L100.382 636.037L97.8561 632.951L97.0822 633.584L94.5566 630.497L95.3306 629.864L92.8049 626.777L92.031 627.41L89.5054 624.324L90.2794 623.69L87.7537 620.604L86.9798 621.237L84.4542 618.15L85.2281 617.517L82.7026 614.43L81.9286 615.064L79.403 611.977L80.1769 611.344L77.6513 608.257L76.8774 608.89L74.3518 605.803L75.1257 605.17L72.6002 602.083L71.8262 602.717L69.3006 599.63L70.0745 598.997L67.5489 595.91L66.775 596.543L64.2494 593.457L65.0233 592.823L62.4977 589.737L61.7238 590.37L59.1982 587.283L59.9721 586.65L57.4465 583.563L56.6726 584.197L54.147 581.11L54.9209 580.477L52.3953 577.39L51.6213 578.023L49.0958 574.937L49.8698 574.303L47.3441 571.217L46.5702 571.85L44.0446 568.763L44.8185 568.13L42.2929 565.043L41.5189 565.676L38.9933 562.59L39.7673 561.956L37.2417 558.87L36.4678 559.503L33.9421 556.416L34.7161 555.783L32.1905 552.696L31.4166 553.33L28.8909 550.243L29.6649 549.61L27.1393 546.523L26.3654 547.156L23.8397 544.069L24.6136 543.436L22.0881 540.349L21.3141 540.983L18.7885 537.896L19.5625 537.263L17.0369 534.176L16.2629 534.809L13.7374 531.723L14.5113 531.089L11.9857 528.003L11.2117 528.636L8.6861 525.549L9.46008 524.916L6.93451 521.829L6.16052 522.463L3.63495 519.376L4.40887 518.743L1.88324 515.656L1.10931 516.289L-1.41632 513.203L-0.642334 512.569L-3.16791 509.483L-3.94189 510.116L-6.46753 507.029L-5.69354 506.396L-8.21918 503.309L-8.9931 503.942L-11.5187 500.856L-10.7448 500.222L-13.2703 497.136L-14.0443 497.769L-16.5699 494.682L-15.796 494.049L-18.3215 490.962L-19.0955 491.596L-21.6211 488.509L-20.8472 487.876L-23.3728 484.789L-24.1467 485.422L-26.6723 482.335L-25.8984 481.702L-28.424 478.615L-29.1979 479.249L-31.7235 476.162L-30.9496 475.529L-33.4752 472.442L-34.2491 473.075L-36.7747 469.989L-36.0008 469.355L-38.5264 466.269L-39.3003 466.902L-41.8259 463.815L-41.052 463.182L-43.5776 460.095L-44.3515 460.729L-46.8771 457.642L-46.1032 457.009L-48.6288 453.922L-49.4027 454.555L-51.9283 451.468L-51.1544 450.835L-53.68 447.749L-54.4539 448.382L-56.9795 445.295L-56.2056 444.662L-58.7312 441.575L-59.5052 442.208L-62.0307 439.122L-61.2568 438.488L-63.7824 435.402L-64.5563 436.035L-67.082 432.948L-66.308 432.315L-68.8336 429.228L-69.6076 429.862L-72.1331 426.775L-71.3592 426.142L-73.8848 423.055L-74.6588 423.688L-77.1844 420.601L-76.4104 419.968L-78.936 416.881L-79.71 417.515L-82.2356 414.428L-81.4616 413.795L-83.9872 410.708L-84.7612 411.341L-87.2867 408.255L-86.5128 407.621L-89.0384 404.535L-89.8124 405.168L-92.338 402.081L-91.5641 401.448L-94.0897 398.361L-94.8636 398.995L-97.3892 395.908L-96.6152 395.275L-99.1408 392.188L-99.9148 392.821L-102.44 389.734L-101.666 389.101L-104.192 386.015L-104.966 386.648L-107.492 383.561L-106.718 382.928L-109.243 379.841L-110.017 380.474L-112.543 377.388L-111.769 376.754L-114.294 373.668L-115.068 374.301L-117.594 371.214L-116.82 370.581L-119.346 367.494L-120.12 368.128L-122.645 365.041L-121.871 364.408L-124.397 361.321L-125.171 361.954L-127.696 358.867L-126.922 358.234L-129.448 355.148L-130.222 355.781L-132.748 352.694L-131.974 352.061L-134.499 348.974L-135.273 349.607L-137.799 346.521L-137.025 345.887L-139.55 342.801L-140.324 343.434L-142.85 340.347L-142.076 339.714L-144.602 336.627L-145.376 337.26L-147.901 334.174L-147.127 333.541L-149.653 330.454L-150.427 331.087L-152.953 328L-152.179 327.367L-154.704 324.281L-155.478 324.914L-158.004 321.827L-157.23 321.194L-159.755 318.107L-160.529 318.74L-163.055 315.654L-162.281 315.02L-164.807 311.934L-165.581 312.567L-168.106 309.48L-167.332 308.847L-169.858 305.76L-170.632 306.394L-173.157 303.307L-172.383 302.674L-174.909 299.587L-175.683 300.22L-178.209 297.133L-177.435 296.5L-179.96 293.413L-180.734 294.047L-183.26 290.96L-182.486 290.327L-185.011 287.24L-185.785 287.873L-188.311 284.787L-187.537 284.153L-190.063 281.067L-190.837 281.7L-193.362 278.613L-192.588 277.98L-195.114 274.893L-195.888 275.526L-198.413 272.44L-197.639 271.807L-200.165 268.72L-200.939 269.353L-203.465 266.266L-202.691 265.633L-205.216 262.547L-205.99 263.18L-208.516 260.093L-207.742 259.46L-210.267 256.373L-211.041 257.006L-213.567 253.92L-212.793 253.286L-215.319 250.2L-216.093 250.833L-218.618 247.746L-217.844 247.113L-220.37 244.026L-221.144 244.659L-223.669 241.573L-222.895 240.94L-225.421 237.853L-226.195 238.486L-228.721 235.399L-227.947 234.766L-230.472 231.679L-231.246 232.313L-233.772 229.226L-232.998 228.593L-235.523 225.506L-236.297 226.139L-238.823 223.053L-238.049 222.419L-240.575 219.333L-241.349 219.966L-243.874 216.879L-243.1 216.246L-245.626 213.159L-246.4 213.792L-248.925 210.706L-248.151 210.073L-250.677 206.986L-251.451 207.619L-253.977 204.532L-253.203 203.899L-255.728 200.812L-256.502 201.446L-259.028 198.359L-258.254 197.726L-260.779 194.639L-261.553 195.272L-264.079 192.186L-263.305 191.552L-265.831 188.466L-266.605 189.099L-269.13 186.012L-268.356 185.379L-270.882 182.292L-271.656 182.925L-274.181 179.839L-273.407 179.206L-275.933 176.119L-276.707 176.752L-279.233 173.665L-278.459 173.032L-280.984 169.945L-281.758 170.579L-284.284 167.492L-283.51 166.859L-286.035 163.772L-286.809 164.405L-289.335 161.319L-288.561 160.685L-291.087 157.599L-291.861 158.232L-294.386 155.145L-293.612 154.512L-296.138 151.425L-296.912 152.058L-299.437 148.972L-298.663 148.339L-301.189 145.252L-301.963 145.885L-304.489 142.798L-303.715 142.165L-306.24 139.078L-307.014 139.712L-309.54 136.625L-308.766 135.992L-311.292 132.905L-312.065 133.538L-314.591 130.452L-313.817 129.818L-316.343 126.732L-317.117 127.365L-319.642 124.278L-318.868 123.645L-319.663 122.674L-318.978 121.653L-319.808 121.095L-317.611 117.821L-316.781 118.378L-314.583 115.104L-315.414 114.547L-313.216 111.272L-312.386 111.83L-310.189 108.555L-311.019 107.998L-308.822 104.724L-307.992 105.281L-305.794 102.006L-306.625 101.449L-304.427 98.1747L-303.597 98.7319L-301.4 95.4575L-302.23 94.9003L-300.033 91.6259L-299.202 92.1832L-297.005 88.9088L-297.836 88.3515L-295.638 85.0771L-294.808 85.6343L-292.611 82.36L-293.441 81.8027L-291.244 78.5283L-290.413 79.0856L-288.216 75.8112L-289.046 75.254L-286.849 71.9796L-286.019 72.5368L-283.822 69.2624L-284.652 68.7052L-282.455 65.4308L-281.624 65.988L-279.427 62.7136L-280.257 62.1564L-278.06 58.882L-277.23 59.4392L-275.032 56.1648L-275.863 55.6076L-273.666 52.3332L-272.835 52.8904L-270.638 49.616L-271.468 49.0588L-269.271 45.7844L-268.441 46.3416L-266.243 43.0672L-267.074 42.51L-264.876 39.2356L-264.046 39.7928L-261.849 36.5184L-262.679 35.9612L-260.482 32.6868L-259.652 33.244L-257.454 29.9696L-258.285 29.4124L-256.087 26.138L-255.257 26.6953L-253.06 23.4208L-253.89 22.8636L-251.693 19.5892L-250.863 20.1464L-248.665 16.8721L-249.496 16.3148L-247.298 13.0405L-246.468 13.5977L-244.271 10.3232L-245.101 9.76605L-242.904 6.4917L-242.073 7.04889L-239.876 3.77448L-240.707 3.21729L-238.509 -0.0571289L-237.679 0.500122L-235.482 -2.77429L-236.312 -3.33148L-234.115 -6.6059L-233.284 -6.04871L-231.087 -9.32306L-231.918 -9.88031L-229.72 -13.1547L-228.89 -12.5975L-226.693 -15.8718L-227.523 -16.4291L-225.326 -19.7035L-224.495 -19.1462L-222.298 -22.4207L-223.128 -22.9778L-220.931 -26.2523L-220.101 -25.695L-219.002 -27.3323L-218.588 -27.9487L-219.059 -28.5231L-220.334 -30.0801L-221.108 -29.4464L-223.658 -32.5604L-222.885 -33.194L-225.435 -36.308L-226.209 -35.6743L-228.759 -38.7883L-227.986 -39.4219L-230.536 -42.5359L-231.31 -41.9022L-233.861 -45.0162L-233.087 -45.6498L-235.638 -48.7638L-236.411 -48.1301L-238.962 -51.2441L-238.188 -51.8777L-240.739 -54.9917L-241.512 -54.358L-244.063 -57.472L-243.289 -58.1057L-245.84 -61.2196L-246.613 -60.586L-249.164 -63.7L-248.39 -64.3336L-250.941 -67.4476L-251.714 -66.8139L-254.265 -69.9279L-253.491 -70.5615L-256.042 -73.6754L-256.816 -73.0418L-259.366 -76.1558L-258.592 -76.7894L-261.143 -79.9034L-261.917 -79.2697L-264.467 -82.3837L-263.694 -83.0173L-266.244 -86.1313L-267.018 -85.4976L-269.568 -88.6116L-268.795 -89.2452L-271.345 -92.3592L-272.119 -91.7255L-274.669 -94.8395L-273.896 -95.4731L-276.446 -98.5871L-277.22 -97.9534L-279.771 -101.067L-278.997 -101.701L-281.547 -104.815L-282.321 -104.181L-284.872 -107.295L-284.098 -107.929L-286.649 -111.043L-287.422 -110.409L-289.973 -113.523L-289.199 -114.157L-291.75 -117.271L-292.523 -116.637L-295.074 -119.751L-294.3 -120.385L-296.851 -123.499L-297.624 -122.865L-300.175 -125.979L-299.401 -126.613L-301.952 -129.727L-302.726 -129.093L-305.276 -132.207L-304.502 -132.841L-307.053 -135.955L-307.827 -135.321L-310.377 -138.435L-309.604 -139.069L-312.154 -142.182L-312.928 -141.549L-315.478 -144.663L-314.705 -145.296L-317.255 -148.41L-318.029 -147.777L-320.579 -150.891L-319.806 -151.524L-322.356 -154.638L-323.13 -154.005L-325.681 -157.119L-324.907 -157.752L-327.457 -160.866L-328.231 -160.233L-330.782 -163.347L-330.008 -163.98L-332.559 -167.094L-333.332 -166.461L-335.883 -169.574L-335.109 -170.208L-337.66 -173.322L-338.433 -172.688L-340.984 -175.802L-340.21 -176.436L-342.761 -179.55L-343.534 -178.916L-346.085 -182.03L-345.311 -182.664L-347.862 -185.778L-348.636 -185.144L-351.186 -188.258L-350.412 -188.892L-352.963 -192.006L-353.737 -191.372L-356.287 -194.486L-355.514 -195.12L-358.064 -198.234L-358.838 -197.6L-361.388 -200.714L-360.615 -201.348L-363.165 -204.462L-363.939 -203.828L-366.489 -206.942L-365.716 -207.576L-368.266 -210.69L-369.04 -210.056L-371.591 -213.17L-370.817 -213.803L-373.367 -216.917L-374.141 -216.284L-376.692 -219.398L-375.918 -220.031L-378.469 -223.145L-379.242 -222.512L-381.793 -225.626L-381.019 -226.259L-383.57 -229.373L-384.343 -228.74L-386.894 -231.854L-386.12 -232.487L-388.671 -235.601L-389.444 -234.968L-391.995 -238.081L-391.221 -238.715L-393.772 -241.829L-394.546 -241.195L-397.096 -244.309L-396.322 -244.943L-398.873 -248.057L-399.647 -247.423L-402.197 -250.537L-401.424 -251.171L-403.974 -254.285L-404.748 -253.651L-407.298 -256.765L-406.525 -257.399L-409.075 -260.513L-409.849 -259.879L-412.399 -262.993L-411.626 -263.627L-414.176 -266.741L-414.95 -266.107L-417.5 -269.221L-416.727 -269.855L-419.277 -272.969L-420.051 -272.335L-422.602 -275.449L-421.828 -276.083L-424.379 -279.197L-425.152 -278.563L-427.703 -281.677L-426.929 -282.311L-429.48 -285.424L-430.253 -284.791L-432.804 -287.905L-432.03 -288.538L-434.581 -291.652L-435.354 -291.019L-437.905 -294.133L-437.131 -294.766L-439.682 -297.88L-440.455 -297.247L-443.006 -300.361L-442.232 -300.994L-444.783 -304.108L-445.557 -303.475L-448.107 -306.589L-447.334 -307.222L-449.884 -310.336L-450.658 -309.702L-453.208 -312.816L-452.435 -313.45L-454.985 -316.564L-455.759 -315.93L-458.309 -319.044L-457.536 -319.678L-460.086 -322.792L-460.86 -322.158L-463.41 -325.272L-462.637 -325.906L-465.187 -329.02L-465.961 -328.386L-468.512 -331.5L-467.738 -332.134L-470.289 -335.248L-471.062 -334.614L-473.613 -337.728L-472.839 -338.362L-475.39 -341.476L-476.163 -340.842L-478.714 -343.956L-477.94 -344.59L-480.491 -347.704L-481.264 -347.07L-483.815 -350.184L-483.041 -350.818L-485.592 -353.931L-486.365 -353.298L-488.916 -356.412L-488.142 -357.045L-490.693 -360.159L-491.467 -359.526L-494.017 -362.64L-493.243 -363.273L-495.794 -366.387L-496.568 -365.754L-499.118 -368.868L-498.345 -369.501L-500.895 -372.615L-501.669 -371.982L-504.219 -375.096L-503.446 -375.729L-505.996 -378.843L-506.77 -378.209L-509.32 -381.323L-508.547 -381.957L-511.097 -385.071L-511.871 -384.437L-514.422 -387.551L-513.648 -388.185L-516.198 -391.299L-516.972 -390.665L-519.523 -393.779L-518.749 -394.413L-521.3 -397.527L-522.073 -396.893L-524.624 -400.007L-523.85 -400.641L-526.401 -403.755L-527.174 -403.121L-529.725 -406.235L-528.951 -406.869L-529.756 -407.851L-529.053 -408.901L-529.883 -409.458L-527.65 -412.79L-526.819 -412.233L-524.586 -415.566L-525.416 -416.122L-523.183 -419.455L-522.352 -418.898L-520.119 -422.23L-520.949 -422.787L-518.716 -426.119L-517.885 -425.562L-515.652 -428.895L-516.482 -429.451L-514.249 -432.783L-513.418 -432.227L-511.185 -435.559L-512.015 -436.116L-509.782 -439.448L-508.951 -438.891L-506.718 -442.223L-507.549 -442.78L-505.315 -446.112L-504.484 -445.556L-502.251 -448.888L-503.082 -449.445L-500.848 -452.777L-500.017 -452.22L-497.784 -455.552L-498.615 -456.109L-496.381 -459.441L-495.55 -458.884L-493.317 -462.217L-494.148 -462.773L-491.914 -466.106L-491.084 -465.549L-488.85 -468.881L-489.681 -469.438L-487.447 -472.77L-486.617 -472.213L-484.383 -475.546L-485.214 -476.102L-482.98 -479.434L-482.15 -478.878L-479.916 -482.21L-480.747 -482.767L-478.513 -486.099L-477.683 -485.542L-475.449 -488.874L-476.28 -489.431L-474.046 -492.763L-473.216 -492.207L-470.982 -495.539L-471.813 -496.096L-469.579 -499.428L-468.749 -498.871L-466.515 -502.203L-467.346 -502.76L-465.113 -506.092L-464.282 -505.535L-462.048 -508.868L-462.879 -509.424L-460.646 -512.757L-459.815 -512.2L-457.581 -515.532L-458.412 -516.089L-456.179 -519.421L-455.348 -518.864L-453.115 -522.197L-453.945 -522.753L-451.712 -526.085L-450.881 -525.529L-448.648 -528.861L-449.478 -529.418L-447.245 -532.75L-446.414 -532.193L-444.181 -535.525L-445.011 -536.082L-442.778 -539.414L-441.947 -538.858L-439.714 -542.19L-440.544 -542.747L-438.311 -546.079L-437.48 -545.522L-435.247 -548.854L-436.077 -549.411L-433.844 -552.743L-433.013 -552.186L-430.78 -555.519L-431.61 -556.075L-429.377 -559.408L-428.546 -558.851L-426.313 -562.183L-427.144 -562.74L-424.91 -566.072L-424.079 -565.515L-421.846 -568.847L-422.677 -569.404L-420.443 -572.736L-419.612 -572.18L-417.379 -575.512L-418.21 -576.069L-415.976 -579.401L-415.145 -578.844L-412.912 -582.176L-413.743 -582.733L-411.509 -586.065L-410.679 -585.509L-408.445 -588.841L-409.276 -589.398L-407.042 -592.73L-406.212 -592.173L-403.978 -595.505L-404.809 -596.062L-402.575 -599.394L-401.745 -598.837L-399.511 -602.17L-400.342 -602.726L-398.108 -606.059L-397.278 -605.502L-395.044 -608.834L-395.875 -609.391L-393.641 -612.723L-392.811 -612.166L-390.577 -615.498L-391.408 -616.055L-389.174 -619.387L-388.344 -618.831L-386.11 -622.163L-386.941 -622.72L-384.708 -626.052L-383.877 -625.495L-381.643 -628.827L-382.474 -629.384L-380.241 -632.716L-379.41 -632.16L-377.176 -635.492L-378.007 -636.049L-375.774 -639.381L-374.943 -638.824L-372.709 -642.156L-373.54 -642.713L-371.307 -646.045L-370.476 -645.489L-368.242 -648.821L-369.073 -649.378L-366.84 -652.71L-366.009 -652.153L-363.775 -655.485L-364.606 -656.042L-362.373 -659.374L-361.542 -658.817L-359.309 -662.15L-360.139 -662.706L-357.906 -666.039L-357.075 -665.482L-354.842 -668.814L-355.672 -669.371L-353.439 -672.703L-352.608 -672.146L-350.375 -675.479L-351.205 -676.035L-348.972 -679.368L-348.141 -678.811L-345.908 -682.143L-346.738 -682.7L-344.505 -686.032L-343.674 -685.475L-341.441 -688.807L-342.271 -689.364L-340.038 -692.696L-339.207 -692.14L-336.974 -695.472L-337.804 -696.029L-335.571 -699.361L-334.74 -698.804L-332.507 -702.136L-333.337 -702.693L-331.104 -706.025L-330.273 -705.469L-328.04 -708.801L-328.87 -709.358L-326.637 -712.69L-325.806 -712.133L-323.573 -715.465L-324.404 -716.022L-322.17 -719.354L-321.339 -718.797L-319.106 -722.13L-319.937 -722.686L-317.703 -726.019L-316.872 -725.462L-314.639 -728.794L-315.47 -729.351L-313.236 -732.683L-312.405 -732.126L-310.172 -735.459L-311.003 -736.015L-308.769 -739.348L-307.938 -738.791L-305.705 -742.123L-306.536 -742.68L-304.302 -746.012L-303.472 -745.455L-301.238 -748.788L-302.069 -749.344L-299.835 -752.677L-299.005 -752.12L-296.771 -755.452L-297.602 -756.009L-295.368 -759.341L-294.538 -758.784L-292.304 -762.116L-293.135 -762.673L-290.901 -766.005L-290.071 -765.449L-287.837 -768.781L-288.668 -769.338L-286.434 -772.67L-285.604 -772.113L-283.37 -775.445L-284.201 -776.002L-281.967 -779.334L-281.137 -778.778L-280.317 -780H-278.853V-781H-274.858V-780H-270.863V-781H-266.868V-780H-262.873V-781H-258.878V-780H-254.883V-781H-250.888V-780H-246.892V-781H-242.897V-780H-238.902V-781H-234.907V-780H-230.912V-781H-226.917V-780H-222.922V-781H-218.927V-780H-214.931V-781H-210.936V-780H-206.941V-781H-202.946V-780H-198.951V-781H-194.956V-780H-190.961V-781H-186.966V-780H-182.971V-781H-178.975V-780H-174.98V-781H-170.985V-780H-166.99V-781H-162.995V-780H-159V-781H-155.005V-780H-151.01V-781H-147.014V-780H-143.019V-781H-139.024V-780H-135.029V-781H-131.034V-780H-127.039V-781H-123.044V-780H-119.049V-781H-115.054V-780H-111.058V-781H-107.063V-780H-103.068V-781H-99.0731V-780H-95.078V-781H-91.0829V-780H-87.0877V-781H-83.0926V-780H-79.0975V-781H-75.1024V-780H-71.1073V-781H-67.1122V-780H-63.117V-781H-59.1219V-780H-55.1268V-781H-51.1317V-780H-47.1366V-781H-43.1414V-780H-39.1463V-781H-35.1512V-780H-31.1561V-781H-27.161V-780H-23.1659V-781H-19.1707V-780H-15.1757V-781H-11.1805V-780H-7.18542V-781H-3.19031V-780H0.80481V-781H4.79993V-780H8.79504V-781H12.7902V-780H16.7853V-781H20.7804V-780H24.7755V-781H28.7706V-780H32.7657V-781H36.7609V-780H40.756V-781H44.7511V-780H48.7462V-781H52.7413V-780H56.7365V-781H60.7316V-780H64.7267V-781H68.7218V-780H72.7169V-781H76.712V-780H80.7072V-781H84.7023V-780H88.6974V-781H92.6925V-780H96.6876V-781H100.683V-780H104.678V-781H108.673V-780H112.668V-781H116.663V-780H120.658V-781H124.653V-780H128.649V-781H132.644V-780H136.639V-781H140.634V-780H144.629V-781H148.624V-780H152.619V-781H156.614V-780H160.609V-781H164.605V-780H168.6V-781H172.595V-780H176.59V-781H180.585V-780H184.58V-781H188.575V-780H192.57V-781H196.566V-780H200.561V-781H204.556V-780H208.551V-781H212.546V-780H216.541V-781H220.536V-780H224.531V-781H228.526V-780H232.522V-781H236.517V-780H240.512V-781H244.507V-780H248.502V-781H252.497V-780H256.492V-781H260.487V-780H264.483V-781H268.478V-780H272.473V-781H276.468V-780H280.463V-781H284.458V-780H288.453V-781H292.448V-780H296.443V-781H300.439V-780H304.434V-781H308.429V-780H312.424V-781H316.419V-780H320.414V-781H324.409V-780H328.404V-781H332.4V-780H336.395V-781H340.39V-780H344.385V-781H348.38V-780H352.375V-781H356.37V-780H360.365V-781H364.361V-780H368.356V-781H372.351V-780H376.346V-781H380.341V-780H384.336V-781H388.331V-780H392.326V-781H396.321V-780H400.317V-781H404.312V-780H408.307V-781H412.302V-780H416.297V-781H420.292V-780H424.287V-781H428.282V-780H432.277V-781H436.273V-780H440.268V-781H444.263V-780H448.258V-781H452.253V-780H456.248V-781H460.243V-780H464.238V-781H468.234V-780H472.229V-781H476.224V-780H480.219V-781H484.214V-780H488.209V-781H492.204V-780H496.199V-781H500.194V-780H504.19V-781H508.185V-780H512.18V-781H516.175V-780H520.17V-781H524.165V-780H528.16V-781H532.155V-780H536.151V-781H540.146V-780H544.141V-781H548.136V-780H552.131V-781H556.126V-780H560.121V-781H564.116V-780H568.111V-781H572.107V-780H576.102V-781H580.097V-780H584.092V-781H588.087V-780H592.082V-781H596.077V-780H600.072V-781H604.068V-780H608.063V-781H612.058V-780H616.053V-781H620.048V-780H624.043V-781H628.038V-780H632.033V-781H636.028V-780H640.024V-781H644.019V-780H648.014V-781H652.009V-780H656.004V-781H659.999V-780H663.994V-781H667.989V-780H671.984V-781H675.98V-780H679.975V-781H683.97V-780H687.965V-781H691.96V-780H695.955V-781H699.95V-780H703.945V-781H707.941V-780H711.936V-781H715.931V-780H719.926V-781H723.921V-780H727.916V-781H731.911V-780H735.906V-781H739.901V-780H743.897V-781H747.892V-780H751.887V-781H755.882V-780H759.877V-781H763.872V-780H767.867V-781H771.862V-780H775.858V-781H779.853V-780H783.848V-781H787.843V-780H791.838V-781H795.833V-780H799.828V-781H803.823V-780H807.818V-781H811.814V-780H815.809V-781H819.804V-780H823.799V-781H827.794V-780H831.789V-781H835.784V-780H839.779V-781H843.775V-780H847.77V-781H851.765V-780H855.76V-781H859.755V-780H863.75V-781H867.745V-780H871.74V-781H875.735V-780H879.731V-781H883.726V-780H887.721V-781H891.716V-780H895.711V-781H899.706V-780H903.701V-781H907.696V-780H911.692V-781H915.687V-780H919.682V-781H923.677V-780H927.672V-781H931.667V-780H935.662V-781H939.657V-780H941.413L942.972 -779.197L943.43 -780.086L946.98 -778.258L946.523 -777.369L950.073 -775.54L950.531 -776.429L954.081 -774.601L953.624 -773.712L957.174 -771.884L957.632 -772.773L961.182 -770.945L960.724 -770.056L964.275 -768.227L964.733 -769.116L968.283 -767.288L967.825 -766.399L971.376 -764.571L971.833 -765.46L975.384 -763.632L974.926 -762.742L978.476 -760.914L978.934 -761.803L982.485 -759.975L982.027 -759.086L985.577 -757.258L986.035 -758.147L989.585 -756.319L989.128 -755.429L992.678 -753.601L993.136 -754.49L996.686 -752.662L996.228 -751.773L999.779 -749.945L1000.24 -750.834L1003.79 -749.005L1003.33 -748.116L1006.88 -746.288L1007.34 -747.177L1010.89 -745.349L1010.43 -744.46L1013.98 -742.632L1014.44 -743.521L1017.99 -741.692L1017.53 -740.803L1021.08 -738.975L1021.54 -739.864L1025.09 -738.036L1024.63 -737.147L1028.18 -735.319L1028.64 -736.208L1032.19 -734.379L1031.73 -733.49L1035.28 -731.662L1035.74 -732.551L1039.29 -730.723L1038.83 -729.834L1042.38 -728.006L1042.84 -728.895L1046.39 -727.066L1045.93 -726.177L1049.48 -724.349L1049.94 -725.238L1053.49 -723.41L1053.03 -722.521L1056.59 -720.693L1057.04 -721.582L1060.59 -719.753L1060.14 -718.864L1063.69 -717.036L1064.14 -717.925L1067.69 -716.097L1067.24 -715.208L1070.79 -713.38L1071.24 -714.269L1074.8 -712.44L1074.34 -711.551L1077.89 -709.723L1078.35 -710.612L1081.9 -708.784L1081.44 -707.895L1084.99 -706.067L1085.45 -706.956L1089 -705.127L1088.54 -704.238L1092.09 -702.41L1092.55 -703.299L1096.1 -701.471L1095.64 -700.582L1099.19 -698.753L1099.65 -699.643L1103.2 -697.814L1102.74 -696.925L1106.29 -695.097L1106.75 -695.986L1110.3 -694.158L1109.84 -693.269L1113.39 -691.44L1113.85 -692.329L1117.4 -690.501L1116.94 -689.612L1120.49 -687.784L1120.95 -688.673L1124.5 -686.845L1124.04 -685.956L1127.59 -684.127L1128.05 -685.016L1131.6 -683.188L1131.14 -682.299L1134.69 -680.471L1135.15 -681.36L1138.7 -679.532L1138.24 -678.643L1141.8 -676.814L1142.25 -677.703L1145.8 -675.875L1145.35 -674.986L1148.9 -673.158L1149.35 -674.047L1152.9 -672.219L1152.45 -671.33L1156 -669.501L1156.45 -670.39L1160.01 -668.562L1159.55 -667.673L1163.1 -665.845L1163.56 -666.734L1167.11 -664.906L1166.65 -664.017L1170.2 -662.188L1170.66 -663.077L1174.21 -661.249L1173.75 -660.36L1177.3 -658.532L1177.76 -659.421L1181.31 -657.593L1180.85 -656.704L1184.4 -654.875L1184.86 -655.764L1188.41 -653.936L1187.95 -653.047L1191.5 -651.219L1191.96 -652.108L1195.51 -650.28L1195.05 -649.39L1198.6 -647.562L1199.06 -648.451L1202.61 -646.623L1202.15 -645.734L1205.7 -643.906L1206.16 -644.795L1209.71 -642.966L1209.25 -642.077L1212.8 -640.249L1213.26 -641.138L1216.81 -639.31L1216.35 -638.421L1219.9 -636.593L1220.36 -637.482L1223.91 -635.653L1223.45 -634.764L1227.01 -632.936L1227.46 -633.825L1231.01 -631.997L1230.56 -631.108L1234.11 -629.28L1234.56 -630.169L1238.11 -628.34L1237.66 -627.451L1241.21 -625.623L1241.66 -626.512L1245.22 -624.684L1244.76 -623.795L1248.31 -621.967L1248.77 -622.856L1252.32 -621.027L1251.86 -620.138L1255.41 -618.31L1255.87 -619.199L1259.42 -617.371L1258.96 -616.482L1262.51 -614.653L1262.97 -615.543L1266.52 -613.714L1266.06 -612.825L1269.61 -610.997L1270.07 -611.886L1273.62 -610.058L1273.16 -609.169L1276.71 -607.34L1277.17 -608.229L1280.72 -606.401L1280.26 -605.512L1283.81 -603.684L1284.27 -604.573L1287.82 -602.745L1287.36 -601.856L1290.91 -600.027L1291.37 -600.916L1294.92 -599.088L1294.46 -598.199L1298.01 -596.371L1298.47 -597.26L1302.02 -595.432L1301.56 -594.543L1305.11 -592.714L1305.57 -593.603L1309.12 -591.775L1308.66 -590.886L1312.22 -589.058L1312.67 -589.947L1316.22 -588.119L1315.77 -587.229L1319.32 -585.401L1319.77 -586.29L1323.32 -584.462L1322.87 -583.573L1326.42 -581.745L1326.87 -582.634L1330.43 -580.805L1329.97 -579.916L1333.52 -578.088L1333.98 -578.977L1337.53 -577.149L1337.07 -576.26L1340.62 -574.432L1341.08 -575.321L1344.63 -573.492L1344.17 -572.603L1347.72 -570.775L1348.18 -571.664L1351.73 -569.836L1351.27 -568.947L1354.82 -567.119L1355.28 -568.008L1358.83 -566.179L1358.37 -565.29L1361.92 -563.462L1362.38 -564.351L1365.93 -562.523L1365.47 -561.634L1369.02 -559.806L1369.48 -560.695L1373.03 -558.866L1372.57 -557.977L1376.12 -556.149L1376.58 -557.038L1380.13 -555.21L1379.67 -554.321L1383.22 -552.492L1383.68 -553.382L1387.23 -551.553L1386.77 -550.664L1390.32 -548.836L1390.78 -549.725L1394.33 -547.897L1393.87 -547.008L1397.43 -545.179L1397.88 -546.068L1401.43 -544.24L1400.98 -543.351L1404.53 -541.523L1404.98 -542.412L1408.53 -540.584L1408.08 -539.695L1411.63 -537.866L1412.08 -538.755L1415.64 -536.927L1415.18 -536.038L1418.73 -534.21L1419.19 -535.099L1422.74 -533.271L1422.28 -532.382L1425.83 -530.553L1426.29 -531.442L1429.84 -529.614L1429.38 -528.725L1432.93 -526.897L1433.39 -527.786L1436.94 -525.958L1436.48 -525.069L1440.03 -523.24L1440.49 -524.129L1444.04 -522.301L1443.58 -521.412L1447.13 -519.584L1447.59 -520.473L1451.14 -518.645L1450.68 -517.756L1454.23 -515.927L1454.69 -516.816L1458.24 -514.988L1457.78 -514.099L1461.33 -512.271L1461.79 -513.16L1465.34 -511.332L1464.88 -510.443L1468.43 -508.614L1468.89 -509.503L1472.44 -507.675L1471.98 -506.786L1475.53 -504.958L1475.99 -505.847L1479.54 -504.019L1479.08 -503.13L1482.63 -501.301L1483.09 -502.19L1486.64 -500.362L1486.19 -499.473L1489.74 -497.645L1490.19 -498.534L1493.74 -496.706L1493.29 -495.817L1496.84 -493.988L1497.29 -494.877L1500.84 -493.049L1500.39 -492.16L1503.94 -490.332L1504.39 -491.221L1507.95 -489.393L1507.49 -488.504L1511.04 -486.675L1511.5 -487.564L1515.05 -485.736L1514.59 -484.847L1518.14 -483.019L1518.6 -483.908L1522.15 -482.08L1521.69 -481.191L1525.24 -479.362L1525.7 -480.251L1529.25 -478.423L1528.79 -477.534L1532.34 -475.706L1532.8 -476.595L1536.35 -474.767L1535.89 -473.878L1539.44 -472.049L1539.9 -472.938L1543.45 -471.11L1542.99 -470.221L1546.54 -468.393L1547 -469.282L1550.55 -467.454L1550.09 -466.565L1553.64 -464.736L1554.1 -465.625L1557.65 -463.797L1557.19 -462.908L1560.74 -461.08L1561.2 -461.969L1564.75 -460.141L1564.29 -459.252L1565.08 -458.848L1564.59 -458.12L1565.43 -457.568L1563.23 -454.251L1562.4 -454.804L1560.2 -451.487L1561.03 -450.935L1558.84 -447.618L1558 -448.17L1555.81 -444.853L1556.64 -444.301L1554.44 -440.985L1553.61 -441.537L1551.41 -438.22L1552.25 -437.668L1550.05 -434.351L1549.22 -434.903L1547.02 -431.587L1547.85 -431.034L1545.66 -427.718L1544.82 -428.27L1542.62 -424.953L1543.46 -424.401L1541.26 -421.084L1540.43 -421.636L1538.23 -418.32L1539.06 -417.767L1536.87 -414.451L1536.03 -415.003L1533.84 -411.686L1534.67 -411.134L1532.47 -407.817L1531.64 -408.369L1529.44 -405.053L1530.28 -404.501L1528.08 -401.184L1527.25 -401.736L1525.05 -398.419L1525.88 -397.867L1523.69 -394.55L1522.85 -395.103L1520.65 -391.786L1521.49 -391.234L1519.29 -387.917L1518.46 -388.469L1516.26 -385.152L1517.09 -384.6L1514.9 -381.283L1514.06 -381.836L1511.87 -378.519L1512.7 -377.967L1510.5 -374.65L1509.67 -375.202L1507.47 -371.885L1508.31 -371.333L1506.11 -368.016L1505.28 -368.569L1503.08 -365.252L1503.91 -364.7L1501.72 -361.383L1500.88 -361.935L1498.68 -358.618L1499.52 -358.066L1497.32 -354.75L1496.49 -355.302L1494.29 -351.985L1495.12 -351.433L1492.93 -348.116L1492.09 -348.668L1489.9 -345.352L1490.73 -344.799L1488.53 -341.483L1487.7 -342.035L1485.5 -338.718L1486.34 -338.166L1484.14 -334.849L1483.31 -335.401L1481.11 -332.085L1481.94 -331.532L1479.75 -328.216L1478.91 -328.768L1476.71 -325.451L1477.55 -324.899L1475.35 -321.582L1474.52 -322.135L1472.32 -318.818L1473.15 -318.266L1470.96 -314.949L1470.12 -315.501L1467.93 -312.184L1468.76 -311.632L1466.56 -308.315L1465.73 -308.868L1463.53 -305.551L1464.37 -304.999L1462.17 -301.682L1461.34 -302.234L1459.14 -298.917L1459.97 -298.365L1457.78 -295.048L1456.94 -295.601L1454.74 -292.284L1455.58 -291.732L1453.38 -288.415L1452.55 -288.967L1450.35 -285.651L1451.18 -285.098L1448.99 -281.782L1448.15 -282.334L1445.96 -279.017L1446.79 -278.465L1444.59 -275.148L1443.76 -275.7L1441.56 -272.384L1442.4 -271.831L1440.2 -268.515L1439.37 -269.067L1437.17 -265.75L1438 -265.198L1435.8 -261.881L1434.97 -262.433L1432.77 -259.117L1433.61 -258.565L1431.41 -255.248L1430.58 -255.8L1428.38 -252.483L1429.21 -251.931L1427.02 -248.614L1426.18 -249.167L1423.99 -245.85L1424.82 -245.298L1422.62 -241.981L1421.79 -242.533L1420.69 -240.875L1420.07 -239.944L1421.07 -239.433L1422.83 -238.525L1423.29 -239.414L1426.81 -237.598L1426.36 -236.709L1429.88 -234.893L1430.34 -235.782L1433.87 -233.966L1433.41 -233.077L1436.94 -231.261L1437.39 -232.15L1440.92 -230.334L1440.46 -229.445L1443.99 -227.629L1444.45 -228.518L1447.97 -226.702L1447.51 -225.813L1451.04 -223.997L1451.5 -224.886L1455.02 -223.07L1454.57 -222.181L1458.09 -220.365L1458.55 -221.254L1462.08 -219.438L1461.62 -218.549L1465.15 -216.733L1465.6 -217.622L1469.13 -215.806L1468.67 -214.917L1472.2 -213.101L1472.66 -213.99L1476.18 -212.174L1475.72 -211.285L1479.25 -209.469L1479.71 -210.358L1483.24 -208.542L1482.78 -207.653L1486.3 -205.837L1486.76 -206.726L1490.29 -204.91L1489.83 -204.021L1493.36 -202.205L1493.81 -203.094L1497.34 -201.278L1496.88 -200.389L1500.41 -198.573L1500.87 -199.462L1504.39 -197.646L1503.94 -196.757L1507.46 -194.941L1507.92 -195.83L1511.45 -194.014L1510.99 -193.125L1514.51 -191.309L1514.97 -192.198L1518.5 -190.382L1518.04 -189.492L1521.57 -187.676L1522.03 -188.565L1525.55 -186.749L1525.09 -185.86L1528.62 -184.044L1529.08 -184.933L1532.6 -183.117L1532.15 -182.228L1535.67 -180.412L1536.13 -181.301L1539.66 -179.485L1539.2 -178.596L1542.73 -176.78L1543.18 -177.669L1546.71 -175.853L1546.25 -174.964L1549.78 -173.148L1550.24 -174.037L1553.76 -172.221L1553.3 -171.332L1556.83 -169.516L1557.29 -170.405L1560.82 -168.589L1560.36 -167.7L1563.88 -165.884L1564.34 -166.773L1567.87 -164.957L1567.41 -164.068L1570.94 -162.252L1571.39 -163.141L1574.92 -161.325L1574.46 -160.436L1577.99 -158.62L1578.45 -159.509L1581.97 -157.693L1581.52 -156.804L1585.04 -154.988L1585.5 -155.877L1589.03 -154.061L1588.57 -153.172L1592.09 -151.356L1592.55 -152.245L1596.08 -150.429L1595.62 -149.54L1599.15 -147.724L1599.61 -148.613L1603.13 -146.797L1602.67 -145.908L1606.2 -144.092L1606.66 -144.981L1610.18 -143.165L1609.73 -142.276L1613.25 -140.46L1613.71 -141.349L1617.24 -139.533L1616.78 -138.643L1617.54 -138.25Z" fill="#C2191E" stroke="white" stroke-width="2" stroke-dasharray="4 4"/>
</svg>
