<svg width="58" height="40" viewBox="0 0 58 40" fill="none" xmlns="http://www.w3.org/2000/svg">
  <path
    d="M54.703 3.78493C53.1533 1.02836 51.4715 0.521321 48.0472 0.328503C44.6265 0.0964087 36.0247 0 28.5727 0C21.1063 0 12.501 0.0964089 9.08383 0.324933C5.66668 0.521321 3.98132 1.02479 2.41736 3.78493C0.821259 6.53793 0 11.2798 0 19.6281C0 19.6352 0 19.6388 0 19.6388C0 19.6459 0 19.6495 0 19.6495V19.6566C0 27.9692 0.821259 32.7468 2.41736 35.4712C3.98132 38.2278 5.66311 38.7277 9.08026 38.9598C12.501 39.1598 21.1063 39.2776 28.5727 39.2776C36.0247 39.2776 44.6265 39.1598 48.0508 38.9634C51.4751 38.7313 53.1569 38.2314 54.7065 35.4748C56.3169 32.7504 57.131 27.9728 57.131 19.6602C57.131 19.6602 57.131 19.6495 57.131 19.6424C57.131 19.6424 57.131 19.6352 57.131 19.6317C57.131 11.2798 56.3169 6.53793 54.703 3.78493ZM21.4241 30.3509V8.92672L39.2776 19.6388L21.4241 30.3509Z" fill="currentColor"/>
</svg>
