<svg width="180" height="44" viewBox="0 0 180 44" fill="none" xmlns="http://www.w3.org/2000/svg">
<path fill-rule="evenodd" clip-rule="evenodd" d="M28.0865 5.66264L29.5966 0H14.6821H8.66341L7.15063 5.66264H7.21276L5.13538 13.7737H5.11917L3.58477 19.6629H3.62529L0 33.8195H6.01874L9.64402 19.6629H20.9845L22.5216 13.7737H11.1541L13.2315 5.66264H28.0865Z" fill="white"/>
<path fill-rule="evenodd" clip-rule="evenodd" d="M46.1725 7.96816L41.3586 26.0347C41.3586 26.0347 41.048 27.4315 40.6995 27.7955C40.1187 28.4022 39.5217 28.7204 38.8085 28.7204H31.4337C30.7114 28.7204 30.4044 28.48 30.2656 28.2328C30.0995 27.9369 30.3647 27.0461 30.4044 26.8598L35.3939 7.95737H29.8182C29.8182 7.95737 25.0502 25.7543 24.5883 27.6229C24.1263 29.4916 23.6941 30.8183 24.3181 32.2447C24.9422 33.6712 26.7899 33.8437 27.8948 33.8437H40.6833C41.3721 33.8437 42.9417 33.2856 44.2653 32.0883C45.589 30.8911 46.1563 29.1222 46.5102 27.7739C46.8641 26.4257 51.7645 7.96816 51.7645 7.96816H46.1725Z" fill="white"/>
<path fill-rule="evenodd" clip-rule="evenodd" d="M157.4 33.853L162.036 16.2233C162.276 15.3119 162.428 14.3789 163.068 13.8126C163.662 13.2868 164.775 13.09 165.656 13.09H172.174C172.174 13.09 172.896 13.125 173.169 13.5484C173.352 13.8342 173.136 14.6647 173.136 14.6647L168.217 33.853H173.506C173.506 33.853 178.369 15.382 178.804 13.6293C179.239 11.8765 179.614 10.7116 179.055 9.39305C178.496 8.07447 176.761 7.95312 175.74 7.95312H163.379C162.479 7.95312 160.748 8.22278 159.524 9.32025C158.3 10.4177 157.711 12.4967 157.379 13.7614C157.047 15.026 152.108 33.8395 152.108 33.8395L157.4 33.853Z" fill="#C2191E"/>
<path fill-rule="evenodd" clip-rule="evenodd" d="M152.397 9.42152C151.789 8.16764 149.92 7.96811 148.899 7.96811H137.11C135.737 7.91926 134.399 8.41013 133.385 9.33523C132.161 10.4435 131.197 12.5845 130.862 13.8492C130.605 14.8253 128.749 22.1759 127.912 25.5034C127.566 26.822 127.285 27.9087 127.163 28.3995C126.734 30.1387 126.353 31.2065 126.923 32.5251C127.493 33.8437 129.225 33.8545 130.248 33.8545H142.945C144.161 33.8222 145.325 33.3563 146.227 32.5413C147.451 31.433 147.991 29.621 148.324 28.3563C148.656 27.0917 151.4 17.1092 151.4 17.1092L151.382 17.0688C151.83 15.4024 152.192 14.0811 152.311 13.5768C152.73 11.8376 153.029 10.7293 152.397 9.42152ZM141.205 29.0008H133.544C133.544 29.0008 132.826 28.9442 132.553 28.5208C132.369 28.235 132.574 27.4934 132.574 27.4934L132.68 27.1132L133.406 24.3089L135.884 14.8846C136.015 14.4715 136.243 14.096 136.551 13.7898C137.145 13.2505 138.255 13.0915 139.136 13.0915H145.652C145.652 13.0915 146.376 13.1265 146.649 13.5499C146.832 13.8357 146.797 14.3723 146.597 15.1381C146.457 15.6774 145.014 21.216 144.153 24.5246L143.529 26.9029C143.529 26.9029 143.258 28.0031 142.937 28.3401C142.41 28.8983 141.878 29.0008 141.205 29.0008Z" fill="#C2191E"/>
<path fill-rule="evenodd" clip-rule="evenodd" d="M87.9579 7.96811C84.8621 13.6308 81.8041 19.3527 78.4868 24.7754C78.0194 19.1127 77.2792 13.9004 76.8659 7.96811H61.4679C60.8142 7.96811 59.2311 8.1272 58.2127 8.86604C56.5919 10.0471 56.1515 12.1018 55.5842 14.259C53.8769 20.7145 51.8914 27.9357 50.4164 33.5983H56.03C57.1105 29.0143 58.8286 23.1278 60.1361 18.1501C60.4252 17.0499 60.9222 14.6959 61.63 13.7602C61.9001 13.3908 62.6025 13.1049 63.521 13.1049H71.5009L71.7711 17.4814C72.2816 22.9148 72.9111 28.2673 73.4568 33.69C71.8008 36.8422 70.0908 39.8084 68.4808 43.0442H74.3887L93.8173 7.98968L87.9579 7.96811Z" fill="white"/>
<path fill-rule="evenodd" clip-rule="evenodd" d="M109.212 33.8545L111.879 28.1919H99.6765L107.005 0.148285H101.386L94.0603 28.1919H94.0387L92.588 33.8545H98.2069H109.223H109.234H109.212Z" fill="#C2191E"/>
<path fill-rule="evenodd" clip-rule="evenodd" d="M118.867 7.96811L115.899 13.3611H119.497H119.843L114.553 33.8545H120.124L125.416 13.3611H125.429L126.845 7.96811H121.274H118.867Z" fill="#C2191E"/>
<path fill-rule="evenodd" clip-rule="evenodd" d="M123.173 0.148285L121.688 5.27163H127.455L128.938 0.148285H123.173Z" fill="#C2191E"/>
</svg>
