<svg width="64" height="64" viewBox="0 0 1024 1094" fill="none" xmlns="http://www.w3.org/2000/svg">
    <path fill-rule="evenodd" clip-rule="evenodd" d="M1024 367.727L929.501 536.981L891.664 513.828L771.696 592.898L701.395 718.752L701.776 779.588L753.572 785.592L799.9 769.241L711.188 927.764C711.188 927.764 673.732 915.214 643.176 912.085C627.055 910.456 605.688 910.041 595.481 910.137L492.207 1093.38L100.063 517.341L148.203 431.117L0 213.643L119.141 0H701.395L999.008 184.199L929.946 309.51L1024 367.727Z" fill="#C2191E"/>
    <path fill-rule="evenodd" clip-rule="evenodd" d="M297.573 376.068L352.803 277.071C352.803 277.071 321.007 248.329 308.67 222.111C298.622 200.779 297.573 164.214 297.573 164.214H676.585V182.959L988.824 376.387L919.667 495.599L892.418 479.025L789.207 546.854L746.028 520.125L589.717 800.064H628.54L676.585 764.137V803.289L744.406 811.273L698.715 894.303C664.902 885.748 630.15 881.51 595.282 881.689C558.271 881.689 455.378 881.497 455.378 881.497L539.352 731.787C507.973 672.352 473.325 614.717 435.569 559.149C371.054 465.325 297.573 376.068 297.573 376.068Z" fill="white"/>
    <path fill-rule="evenodd" clip-rule="evenodd" d="M696.953 268.473L613.679 222.998L632.311 262.917L711.516 311.713L687.987 283.674L696.953 268.473Z" fill="#C2191E"/>
    <path fill-rule="evenodd" clip-rule="evenodd" d="M814.125 375.564H1011.04L915.141 438.284L814.125 375.564Z" fill="#C2191E"/>
</svg>