<?xml version="1.0" standalone="no"?>
<!DOCTYPE svg PUBLIC "-//W3C//DTD SVG 20010904//EN"
 "http://www.w3.org/TR/2001/REC-SVG-20010904/DTD/svg10.dtd">
<svg version="1.0" xmlns="http://www.w3.org/2000/svg"
 width="512.000000pt" height="512.000000pt" viewBox="0 0 512.000000 512.000000"
 preserveAspectRatio="xMidYMid meet">
<metadata>
Created by potrace 1.11, written by Peter Selinger 2001-2013
</metadata>
<g transform="translate(0.000000,512.000000) scale(0.100000,-0.100000)"
fill="#000000" stroke="none">
<path d="M549 5042 c-26 -42 -160 -267 -298 -499 l-251 -422 337 -463 c185
-255 352 -484 370 -510 l34 -47 -120 -201 -121 -201 547 -752 c300 -414 619
-851 707 -972 89 -121 283 -388 431 -593 149 -204 272 -372 275 -372 3 0 120
191 260 425 l255 424 72 1 c114 0 268 -20 393 -51 63 -16 117 -25 121 -21 3 4
102 167 218 362 128 215 206 356 199 358 -7 1 -58 -13 -113 -31 l-100 -34
-127 15 -128 15 0 144 0 145 175 292 174 292 296 182 c163 100 300 182 305
182 4 0 48 -23 96 -50 48 -28 91 -47 95 -43 10 11 460 765 462 775 1 5 -101
69 -228 143 -126 73 -229 138 -228 142 1 5 76 136 168 292 96 163 163 287 158
292 -5 5 -339 200 -743 434 l-733 425 -1456 0 -1456 -1 -46 -77z m2831 -731
c0 -21 6 -44 13 -50 14 -11 517 -304 1159 -674 202 -117 367 -215 368 -219 0
-5 -188 -8 -417 -8 -252 0 -413 -4 -407 -9 5 -5 108 -66 229 -136 120 -70 226
-132 235 -137 12 -8 49 10 160 80 80 49 146 88 148 87 7 -6 -264 -435 -275
-435 -6 0 -38 15 -71 34 l-59 33 -259 -157 c-223 -137 -261 -157 -279 -148
-11 6 -57 33 -102 60 -45 26 -85 48 -90 48 -4 0 -147 -235 -318 -521 -170
-287 -345 -579 -387 -650 l-77 -129 100 0 100 0 112 79 112 80 3 -82 c2 -45 6
-85 10 -89 4 -4 72 -15 152 -23 80 -9 152 -20 161 -23 14 -6 -1 -38 -92 -192
-60 -102 -113 -186 -118 -188 -5 -2 -62 7 -127 19 -109 21 -159 23 -599 28
-311 4 -479 10 -478 16 1 6 92 161 202 345 111 184 201 340 201 347 0 34 -336
565 -499 788 -123 168 -336 438 -519 658 l-183 219 136 229 137 229 -88 93
c-126 132 -164 210 -180 369 l-7 68 947 0 946 0 0 -39z"/>
<path d="M3080 4058 c1 -7 20 -49 43 -92 l42 -79 188 -108 c103 -60 187 -106
187 -102 0 3 -23 30 -50 60 l-50 55 21 35 c18 29 19 37 8 44 -70 44 -389 197
-389 187z"/>
</g>
</svg>
