<svg width="221" height="50" viewBox="0 0 221 50" fill="none" xmlns="http://www.w3.org/2000/svg">
	<path fill-rule="evenodd" clip-rule="evenodd" d="M69.7506 12.6197L71.2607 6.95703H56.3462H50.3275L48.8147 12.6197H48.8768L46.7994 20.7307H46.7832L45.2488 26.6199H45.2894L41.6641 40.7765H47.6828L51.3081 26.6199H62.6486L64.1857 20.7307H52.8182L54.8956 12.6197H69.7506Z" fill="white"/>
	<path fill-rule="evenodd" clip-rule="evenodd" d="M87.8365 14.9251L83.0226 32.9916C83.0226 32.9916 82.7119 34.3884 82.3634 34.7524C81.7826 35.3591 81.1856 35.6773 80.4724 35.6773H73.0976C72.3754 35.6773 72.0684 35.4369 71.9296 35.1897C71.7635 34.8939 72.0286 34.003 72.0684 33.8168L77.0579 14.9143H71.4822C71.4822 14.9143 66.7142 32.7112 66.2522 34.5799C65.7903 36.4485 65.3581 37.7752 65.9821 39.2017C66.6061 40.6281 68.4539 40.8007 69.5587 40.8007H82.3472C83.0361 40.8007 84.6056 40.2425 85.9293 39.0453C87.253 37.848 87.8203 36.0791 88.1742 34.7309C88.528 33.3826 93.4284 14.9251 93.4284 14.9251H87.8365Z" fill="white"/>
	<path fill-rule="evenodd" clip-rule="evenodd" d="M199.065 40.81L203.7 23.1803C203.941 22.2689 204.092 21.3359 204.732 20.7696C205.326 20.2438 206.439 20.047 207.32 20.047H213.839C213.839 20.047 214.56 20.082 214.833 20.5054C215.016 20.7912 214.8 21.6217 214.8 21.6217L209.881 40.81H215.17C215.17 40.81 220.033 22.339 220.468 20.5863C220.903 18.8336 221.278 17.6687 220.719 16.3501C220.16 15.0315 218.426 14.9102 217.404 14.9102H205.043C204.143 14.9102 202.412 15.1798 201.188 16.2773C199.964 17.3748 199.375 19.4538 199.043 20.7184C198.711 21.9831 193.772 40.7965 193.772 40.7965L199.065 40.81Z" fill="#C2191E"/>
	<path fill-rule="evenodd" clip-rule="evenodd" d="M194.061 16.3786C193.454 15.1247 191.584 14.9252 190.563 14.9252H178.774C177.401 14.8764 176.063 15.3672 175.049 16.2923C173.825 17.4006 172.861 19.5416 172.526 20.8063C172.269 21.7824 170.413 29.133 169.576 32.4605C169.23 33.7791 168.949 34.8658 168.827 35.3566C168.398 37.0958 168.017 38.1636 168.587 39.4822C169.157 40.8008 170.889 40.8116 171.912 40.8116H184.609C185.825 40.7793 186.99 40.3134 187.891 39.4984C189.115 38.3901 189.655 36.5781 189.988 35.3134C190.32 34.0488 193.065 24.0663 193.065 24.0663L193.046 24.0259C193.494 22.3594 193.856 21.0382 193.975 20.5339C194.394 18.7947 194.693 17.6864 194.061 16.3786ZM182.869 35.9579H175.208C175.208 35.9579 174.49 35.9013 174.217 35.4779C174.033 35.1921 174.238 34.4505 174.238 34.4505L174.344 34.0703L175.07 31.266L177.548 21.8417C177.679 21.4286 177.908 21.053 178.215 20.7469C178.809 20.2076 179.919 20.0485 180.8 20.0485H187.316C187.316 20.0485 188.04 20.0836 188.313 20.5069C188.496 20.7928 188.461 21.3294 188.261 22.0952C188.121 22.6345 186.678 28.1731 185.817 31.4817L185.193 33.86C185.193 33.86 184.922 34.9602 184.601 35.2972C184.074 35.8554 183.542 35.9579 182.869 35.9579Z" fill="#C2191E"/>
	<path fill-rule="evenodd" clip-rule="evenodd" d="M129.622 14.925C126.526 20.5877 123.468 26.3097 120.151 31.7323C119.684 26.0697 118.943 20.8573 118.53 14.925H103.132C102.478 14.925 100.895 15.0841 99.8768 15.823C98.256 17.004 97.8157 19.0588 97.2484 21.216C95.5411 27.6714 93.5555 34.8926 92.0806 40.5553H97.6941C98.7747 35.9712 100.493 30.0848 101.8 25.107C102.089 24.0068 102.586 21.6528 103.294 20.7171C103.564 20.3477 104.267 20.0619 105.185 20.0619H113.165L113.435 24.4383C113.946 29.8717 114.575 35.2243 115.121 40.6469C113.465 43.7992 111.755 46.7653 110.145 50.0011H116.053L135.481 14.9466L129.622 14.925Z" fill="white"/>
	<path fill-rule="evenodd" clip-rule="evenodd" d="M150.876 40.8114L153.543 35.1488H141.34L148.669 7.10522H143.05L135.724 35.1488H135.703L134.252 40.8114H139.871H150.887H150.898H150.876Z" fill="#C2191E"/>
	<path fill-rule="evenodd" clip-rule="evenodd" d="M160.531 14.925L157.563 20.318H161.161H161.507L156.217 40.8114H161.788L167.08 20.318H167.093L168.509 14.925H162.938H160.531Z" fill="#C2191E"/>
	<path fill-rule="evenodd" clip-rule="evenodd" d="M164.838 7.10522L163.352 12.2286H169.119L170.602 7.10522H164.838Z" fill="#C2191E"/>
	<path fill-rule="evenodd" clip-rule="evenodd" d="M38.4012 13.7055L34.8574 20.0137L33.4384 19.1508L28.9395 22.0978L26.3031 26.7885L26.3174 29.0559L28.2598 29.2797L29.9972 28.6703L26.6704 34.5786C26.6704 34.5786 25.2657 34.1108 24.1198 33.9942C23.5153 33.9335 22.714 33.918 22.3312 33.9216L18.4583 40.7511L3.75248 19.2817L5.55777 16.0681L0 7.96264L4.46792 0H26.3031L37.464 6.86525L34.8741 11.5357L38.4012 13.7055Z" fill="#C2191E"/>
	<path fill-rule="evenodd" clip-rule="evenodd" d="M11.1609 14.0161L13.2321 10.3264C13.2321 10.3264 12.0397 9.25519 11.577 8.27801C11.2002 7.48293 11.1609 6.12012 11.1609 6.12012H25.3743V6.81878L37.0836 14.028L34.4902 18.4711L33.4683 17.8534L29.5977 20.3815L27.9785 19.3852L22.1166 29.8188H23.5726L25.3743 28.4798V29.939L27.9177 30.2366L26.2042 33.3312C24.9362 33.0123 23.6329 32.8544 22.3253 32.861C20.9374 32.861 17.0788 32.8539 17.0788 32.8539L20.2279 27.2741C19.0512 25.0589 17.7518 22.9108 16.3359 20.8397C13.9165 17.3428 11.1609 14.0161 11.1609 14.0161Z" fill="white"/>
	<path fill-rule="evenodd" clip-rule="evenodd" d="M26.1366 10.0074L23.0137 8.3125L23.7124 9.80029L26.6827 11.619L25.8003 10.5739L26.1366 10.0074Z" fill="#C2191E"/>
	<path fill-rule="evenodd" clip-rule="evenodd" d="M30.5342 13.9961H37.9187L34.3224 16.3337L30.5342 13.9961Z" fill="#C2191E"/>
</svg>
